<svg width="85" height="70" viewBox="0 0 85 70" fill="none" xmlns="http://www.w3.org/2000/svg">
<g filter="url(#filter0_d_228_371)">
<path d="M44.205 1.1765L47.0092 3.58482C47.5011 4.00721 48.1644 4.1707 48.7962 4.02526L52.3984 3.19599C53.2115 3.00879 54.0395 3.44336 54.3474 4.21892L55.7112 7.65456C55.9504 8.25714 56.4618 8.71016 57.0888 8.87498L60.6638 9.81473C61.4708 10.0269 62.002 10.7965 61.9142 11.6263L61.5252 15.3022C61.4569 15.9469 61.6992 16.5856 62.1778 17.023L64.9065 19.5165C65.5225 20.0793 65.6352 21.0076 65.1719 21.7016L63.1191 24.7756C62.7591 25.3148 62.6767 25.993 62.8973 26.6026L64.1547 30.0786C64.4385 30.8633 64.1069 31.7377 63.3742 32.1368L60.128 33.9047C59.5586 34.2148 59.1705 34.7771 59.0825 35.4194L58.5805 39.0816C58.4672 39.9083 57.7672 40.5284 56.9329 40.5412L53.2369 40.5981C52.5887 40.6081 51.9838 40.9256 51.6073 41.4534L49.4609 44.4628C48.9764 45.1422 48.0684 45.366 47.3237 44.9896L44.0246 43.3223C43.446 43.0299 42.7628 43.0299 42.1842 43.3223L38.8851 44.9896C38.1404 45.366 37.2324 45.1422 36.7479 44.4628L34.6015 41.4534C34.2251 40.9256 33.6202 40.6081 32.9719 40.5981L29.2759 40.5412C28.4416 40.5284 27.7417 39.9083 27.6283 39.0816L27.1264 35.4194C27.0383 34.7771 26.6502 34.2148 26.0809 33.9047L22.8347 32.1368C22.1019 31.7377 21.7703 30.8633 22.0541 30.0786L23.3116 26.6026C23.5321 25.993 23.4498 25.3148 23.0897 24.7756L21.037 21.7016C20.5736 21.0076 20.6863 20.0793 21.3023 19.5165L24.0311 17.023C24.5097 16.5856 24.7519 15.9469 24.6837 15.3022L24.2947 11.6263C24.2068 10.7965 24.7381 10.0269 25.5451 9.81473L29.12 8.87498C29.7471 8.71016 30.2584 8.25714 30.4976 7.65456L31.8614 4.21892C32.1693 3.44336 32.9973 3.00879 33.8105 3.19599L37.4127 4.02526C38.0445 4.1707 38.7078 4.00721 39.1996 3.58482L42.0038 1.1765C42.6369 0.632854 43.572 0.632854 44.205 1.1765Z" fill="url(#paint0_linear_228_371)" stroke="#665000" stroke-width="0.350944"/>
<circle cx="42.9535" cy="23.1209" r="16.472" fill="#785E03"/>
<mask id="mask0_228_371" style="mask-type:alpha" maskUnits="userSpaceOnUse" x="28" y="9" width="32" height="32">
<circle cx="43.8558" cy="24.764" r="15.5316" fill="#C28B37"/>
</mask>
<g mask="url(#mask0_228_371)">
<circle cx="42.9544" cy="23.1209" r="16.472" fill="#8A6B1B"/>
</g>
<circle cx="43.4069" cy="22.9699" r="13.2985" fill="#B3881C"/>
<path d="M43.593 13.0745L43.2791 12.4467L42.9652 13.0745L40.004 18.9969L34.1 19.7349L33.4358 19.8179L33.8819 20.317L37.9614 24.8805L36.8428 31.4436L36.7265 32.1261L37.3457 31.8165L43.2791 28.8497L49.2125 31.8165L49.8306 32.1255L49.7155 31.4441L48.6067 24.8805L52.6766 20.3167L53.1215 19.8178L52.4582 19.7349L46.5542 18.9969L43.593 13.0745Z" fill="url(#paint1_linear_228_371)" stroke="#AE8620" stroke-width="0.701888"/>
<path d="M21.3438 43.2197L21.3437 62.2608L2.00047 62.2608L7.67731 52.7402L2.00047 43.2197L21.3438 43.2197Z" fill="#983535"/>
<path d="M63.6572 43.2197L63.6572 62.2608L83.0005 62.2608L77.3237 52.7402L83.0005 43.2197L63.6572 43.2197Z" fill="#983535"/>
<path d="M15.9033 48.3578L21.3436 43.2197V66.4921H15.9033V48.3578Z" fill="#752727"/>
<path d="M69.0967 48.66L63.6564 43.2197V66.4921H69.0967V48.66Z" fill="#752727"/>
<rect x="15.9033" y="48.6602" width="53.194" height="17.8321" fill="#CE4444"/>
<path d="M24.7017 57.7329H23.7959V57.1616H24.7017C24.8416 57.1616 24.9556 57.1388 25.0435 57.0933C25.1313 57.0461 25.1956 56.981 25.2363 56.8979C25.277 56.8149 25.2974 56.7214 25.2974 56.6172C25.2974 56.5114 25.277 56.4129 25.2363 56.3218C25.1956 56.2306 25.1313 56.1574 25.0435 56.1021C24.9556 56.0467 24.8416 56.019 24.7017 56.019H24.0498V59H23.3174V55.4453H24.7017C24.98 55.4453 25.2184 55.4958 25.417 55.5967C25.6172 55.696 25.7702 55.8335 25.876 56.0093C25.9818 56.1851 26.0347 56.3861 26.0347 56.6123C26.0347 56.8418 25.9818 57.0404 25.876 57.208C25.7702 57.3757 25.6172 57.505 25.417 57.5962C25.2184 57.6873 24.98 57.7329 24.7017 57.7329ZM26.3496 57.7061V57.6548C26.3496 57.4611 26.3773 57.2829 26.4326 57.1201C26.488 56.9557 26.5685 56.8133 26.6743 56.6929C26.7801 56.5724 26.9103 56.4788 27.0649 56.4121C27.2196 56.3438 27.397 56.3096 27.5972 56.3096C27.7974 56.3096 27.9756 56.3438 28.1318 56.4121C28.2881 56.4788 28.4191 56.5724 28.5249 56.6929C28.6323 56.8133 28.7137 56.9557 28.769 57.1201C28.8244 57.2829 28.8521 57.4611 28.8521 57.6548V57.7061C28.8521 57.8981 28.8244 58.0763 28.769 58.2407C28.7137 58.4035 28.6323 58.5459 28.5249 58.668C28.4191 58.7884 28.2889 58.882 28.1343 58.9487C27.9797 59.0155 27.8022 59.0488 27.6021 59.0488C27.4019 59.0488 27.2236 59.0155 27.0674 58.9487C26.9128 58.882 26.7817 58.7884 26.6743 58.668C26.5685 58.5459 26.488 58.4035 26.4326 58.2407C26.3773 58.0763 26.3496 57.8981 26.3496 57.7061ZM27.0527 57.6548V57.7061C27.0527 57.8167 27.0625 57.9201 27.082 58.0161C27.1016 58.1121 27.1325 58.1968 27.1748 58.27C27.2188 58.3416 27.2757 58.3978 27.3457 58.4385C27.4157 58.4792 27.5011 58.4995 27.6021 58.4995C27.6997 58.4995 27.7835 58.4792 27.8535 58.4385C27.9235 58.3978 27.9797 58.3416 28.022 58.27C28.0643 58.1968 28.0952 58.1121 28.1147 58.0161C28.1359 57.9201 28.1465 57.8167 28.1465 57.7061V57.6548C28.1465 57.5474 28.1359 57.4465 28.1147 57.3521C28.0952 57.256 28.0635 57.1714 28.0195 57.0981C27.9772 57.0233 27.9211 56.9647 27.8511 56.9224C27.7811 56.88 27.6965 56.8589 27.5972 56.8589C27.4979 56.8589 27.4132 56.88 27.3433 56.9224C27.2749 56.9647 27.2188 57.0233 27.1748 57.0981C27.1325 57.1714 27.1016 57.256 27.082 57.3521C27.0625 57.4465 27.0527 57.5474 27.0527 57.6548ZM29.9873 56.9346V59H29.2842V56.3584H29.9458L29.9873 56.9346ZM30.7832 56.3413L30.771 56.9932C30.7368 56.9883 30.6953 56.9842 30.6465 56.981C30.5993 56.9761 30.5562 56.9736 30.5171 56.9736C30.4178 56.9736 30.3315 56.9867 30.2583 57.0127C30.1867 57.0371 30.1265 57.0737 30.0776 57.1226C30.0304 57.1714 29.9946 57.2308 29.9702 57.3008C29.9474 57.3708 29.9344 57.4505 29.9312 57.54L29.7896 57.4961C29.7896 57.3252 29.8066 57.1681 29.8408 57.0249C29.875 56.88 29.9246 56.7539 29.9897 56.6465C30.0565 56.5391 30.1379 56.4561 30.2339 56.3975C30.3299 56.3389 30.4398 56.3096 30.5635 56.3096C30.6025 56.3096 30.6424 56.3128 30.6831 56.3193C30.7238 56.3242 30.7572 56.3315 30.7832 56.3413ZM32.5312 56.3584V56.8564H30.9932V56.3584H32.5312ZM31.374 55.7065H32.0771V58.2041C32.0771 58.2806 32.0869 58.3392 32.1064 58.3799C32.1276 58.4206 32.1585 58.4491 32.1992 58.4653C32.2399 58.48 32.2912 58.4873 32.353 58.4873C32.397 58.4873 32.436 58.4857 32.4702 58.4824C32.506 58.4775 32.5361 58.4727 32.5605 58.4678L32.563 58.9854C32.5028 59.0049 32.4377 59.0203 32.3677 59.0317C32.2977 59.0431 32.2204 59.0488 32.1357 59.0488C31.9811 59.0488 31.846 59.0236 31.7305 58.9731C31.6165 58.9211 31.5286 58.8381 31.4668 58.7241C31.4049 58.6102 31.374 58.4604 31.374 58.2749V55.7065ZM34.3574 58.4043V57.2275C34.3574 57.1429 34.3436 57.0705 34.3159 57.0103C34.2882 56.9484 34.2451 56.9004 34.1865 56.8662C34.1296 56.832 34.0555 56.8149 33.9644 56.8149C33.8862 56.8149 33.8187 56.8288 33.7617 56.8564C33.7048 56.8825 33.6608 56.9207 33.6299 56.9712C33.599 57.02 33.5835 57.0778 33.5835 57.1445H32.8804C32.8804 57.0322 32.9064 56.9256 32.9585 56.8247C33.0106 56.7238 33.0863 56.6351 33.1855 56.5586C33.2848 56.4805 33.4028 56.4194 33.5396 56.3755C33.6779 56.3315 33.8325 56.3096 34.0034 56.3096C34.2085 56.3096 34.3908 56.3438 34.5503 56.4121C34.7098 56.4805 34.8351 56.583 34.9263 56.7197C35.019 56.8564 35.0654 57.0273 35.0654 57.2324V58.3628C35.0654 58.5076 35.0744 58.6265 35.0923 58.7192C35.1102 58.8104 35.1362 58.8901 35.1704 58.9585V59H34.46C34.4258 58.9284 34.3997 58.8389 34.3818 58.7314C34.3656 58.6224 34.3574 58.5133 34.3574 58.4043ZM34.4502 57.3911L34.4551 57.7891H34.062C33.9692 57.7891 33.8887 57.7996 33.8203 57.8208C33.752 57.842 33.6958 57.8721 33.6519 57.9111C33.6079 57.9486 33.5754 57.9925 33.5542 58.043C33.5347 58.0934 33.5249 58.1488 33.5249 58.209C33.5249 58.2692 33.5387 58.3237 33.5664 58.3726C33.5941 58.4198 33.634 58.4572 33.686 58.4849C33.7381 58.5109 33.7992 58.5239 33.8691 58.5239C33.9749 58.5239 34.0669 58.5028 34.145 58.4604C34.2231 58.4181 34.2834 58.366 34.3257 58.3042C34.3696 58.2424 34.3924 58.1838 34.394 58.1284L34.5796 58.4263C34.5535 58.493 34.5177 58.5622 34.4722 58.6338C34.4282 58.7054 34.3721 58.7729 34.3037 58.8364C34.2354 58.8983 34.1532 58.9495 34.0571 58.9902C33.9611 59.0293 33.8472 59.0488 33.7153 59.0488C33.5477 59.0488 33.3955 59.0155 33.2588 58.9487C33.1237 58.8804 33.0163 58.7868 32.9365 58.668C32.8584 58.5475 32.8193 58.4108 32.8193 58.2578C32.8193 58.1195 32.8454 57.9966 32.8975 57.8892C32.9495 57.7817 33.026 57.6914 33.127 57.6182C33.2295 57.5433 33.3573 57.4871 33.5103 57.4497C33.6632 57.4106 33.8407 57.3911 34.0425 57.3911H34.4502ZM36.3496 55.25V59H35.644V55.25H36.3496ZM39.7358 58.4238V55.25H40.4438V59H39.8066L39.7358 58.4238ZM38.0659 57.7109V57.6597C38.0659 57.4578 38.0887 57.2747 38.1343 57.1104C38.1799 56.9443 38.2466 56.8019 38.3345 56.6831C38.4224 56.5643 38.5306 56.4723 38.6592 56.4072C38.7878 56.3421 38.9342 56.3096 39.0986 56.3096C39.2533 56.3096 39.3883 56.3421 39.5039 56.4072C39.6211 56.4723 39.7204 56.5651 39.8018 56.6855C39.8848 56.8044 39.9515 56.9451 40.002 57.1079C40.0524 57.269 40.089 57.4456 40.1118 57.6377V57.75C40.089 57.9339 40.0524 58.1048 40.002 58.2627C39.9515 58.4206 39.8848 58.5589 39.8018 58.6777C39.7204 58.7949 39.6211 58.8861 39.5039 58.9512C39.3867 59.0163 39.25 59.0488 39.0938 59.0488C38.9294 59.0488 38.7829 59.0155 38.6543 58.9487C38.5273 58.882 38.4199 58.7884 38.332 58.668C38.2458 58.5475 38.1799 58.4059 38.1343 58.2432C38.0887 58.0804 38.0659 57.903 38.0659 57.7109ZM38.769 57.6597V57.7109C38.769 57.82 38.7772 57.9217 38.7935 58.0161C38.8114 58.1105 38.8398 58.1943 38.8789 58.2676C38.9196 58.3392 38.9717 58.3953 39.0352 58.436C39.1003 58.4751 39.1792 58.4946 39.272 58.4946C39.3924 58.4946 39.4917 58.4678 39.5698 58.4141C39.6479 58.3587 39.7074 58.283 39.748 58.187C39.7904 58.091 39.8148 57.9803 39.8213 57.855V57.5352C39.8164 57.4326 39.8018 57.3407 39.7773 57.2593C39.7546 57.1763 39.7204 57.1055 39.6748 57.0469C39.6309 56.9883 39.5755 56.9427 39.5088 56.9102C39.4437 56.8776 39.3664 56.8613 39.2769 56.8613C39.1857 56.8613 39.1076 56.8825 39.0425 56.9248C38.9774 56.9655 38.9245 57.0216 38.8838 57.0933C38.8447 57.1649 38.8154 57.2495 38.7959 57.3472C38.778 57.4432 38.769 57.5474 38.769 57.6597ZM42.209 59.0488C42.0039 59.0488 41.82 59.0163 41.6572 58.9512C41.4945 58.8844 41.3561 58.7925 41.2422 58.6753C41.1299 58.5581 41.0436 58.4222 40.9834 58.2676C40.9232 58.1113 40.8931 57.9453 40.8931 57.7695V57.6719C40.8931 57.4717 40.9215 57.2886 40.9785 57.1226C41.0355 56.9565 41.1169 56.8125 41.2227 56.6904C41.3301 56.5684 41.4603 56.4748 41.6133 56.4097C41.7663 56.3429 41.9388 56.3096 42.1309 56.3096C42.318 56.3096 42.484 56.3405 42.6289 56.4023C42.7738 56.4642 42.895 56.5521 42.9927 56.666C43.092 56.7799 43.1668 56.9167 43.2173 57.0762C43.2677 57.234 43.293 57.4098 43.293 57.6035V57.8965H41.1934V57.4277H42.6021V57.374C42.6021 57.2764 42.5841 57.1893 42.5483 57.1128C42.5142 57.0347 42.4621 56.9728 42.3921 56.9272C42.3221 56.8817 42.2326 56.8589 42.1235 56.8589C42.0308 56.8589 41.951 56.8792 41.8843 56.9199C41.8175 56.9606 41.763 57.0176 41.7207 57.0908C41.68 57.1641 41.6491 57.2503 41.6279 57.3496C41.6084 57.4473 41.5986 57.5547 41.5986 57.6719V57.7695C41.5986 57.8753 41.6133 57.973 41.6426 58.0625C41.6735 58.152 41.7166 58.2293 41.772 58.2944C41.8289 58.3595 41.8973 58.41 41.9771 58.4458C42.0584 58.4816 42.1504 58.4995 42.2529 58.4995C42.3799 58.4995 42.4979 58.4751 42.6069 58.4263C42.7176 58.3758 42.8128 58.3001 42.8926 58.1992L43.2344 58.5703C43.179 58.6501 43.1034 58.7266 43.0073 58.7998C42.9129 58.873 42.799 58.9333 42.6655 58.9805C42.5321 59.026 42.3799 59.0488 42.209 59.0488ZM46.833 58.0698C46.833 58.0063 46.8232 57.9494 46.8037 57.8989C46.7858 57.8468 46.7516 57.7996 46.7012 57.7573C46.6507 57.7134 46.5799 57.6702 46.4888 57.6279C46.3976 57.5856 46.2796 57.5417 46.1348 57.4961C45.9736 57.444 45.8206 57.3854 45.6758 57.3203C45.5326 57.2552 45.4056 57.1795 45.2949 57.0933C45.1859 57.0054 45.0996 56.9036 45.0361 56.7881C44.9743 56.6725 44.9434 56.5382 44.9434 56.3853C44.9434 56.2371 44.9759 56.1029 45.041 55.9824C45.1061 55.8604 45.1973 55.7562 45.3145 55.6699C45.4316 55.582 45.57 55.5145 45.7295 55.4673C45.8906 55.4201 46.0672 55.3965 46.2593 55.3965C46.5213 55.3965 46.75 55.4437 46.9453 55.5381C47.1406 55.6325 47.292 55.7619 47.3994 55.9263C47.5085 56.0907 47.563 56.2786 47.563 56.4902H46.8354C46.8354 56.3861 46.8135 56.2949 46.7695 56.2168C46.7272 56.137 46.6621 56.0744 46.5742 56.0288C46.488 55.9832 46.3789 55.9604 46.2471 55.9604C46.1201 55.9604 46.0143 55.98 45.9297 56.019C45.8451 56.0565 45.7816 56.1077 45.7393 56.1729C45.6969 56.2363 45.6758 56.3079 45.6758 56.3877C45.6758 56.4479 45.6904 56.5024 45.7197 56.5513C45.7507 56.6001 45.7962 56.6457 45.8564 56.688C45.9167 56.7303 45.9907 56.7702 46.0786 56.8076C46.1665 56.8451 46.2682 56.8817 46.3838 56.9175C46.5775 56.9761 46.7476 57.042 46.894 57.1152C47.0422 57.1885 47.1659 57.2707 47.2651 57.3618C47.3644 57.453 47.4393 57.5563 47.4897 57.6719C47.5402 57.7874 47.5654 57.9185 47.5654 58.0649C47.5654 58.2196 47.5353 58.3579 47.4751 58.48C47.4149 58.6021 47.3278 58.7054 47.2139 58.79C47.0999 58.8747 46.964 58.939 46.8062 58.9829C46.6483 59.0269 46.4717 59.0488 46.2764 59.0488C46.1006 59.0488 45.9272 59.026 45.7563 58.9805C45.5854 58.9333 45.43 58.8625 45.29 58.7681C45.1517 58.6737 45.041 58.5532 44.958 58.4067C44.875 58.2603 44.8335 58.0869 44.8335 57.8867H45.5684C45.5684 57.9974 45.5854 58.091 45.6196 58.1675C45.6538 58.244 45.7018 58.3058 45.7637 58.353C45.8271 58.4002 45.902 58.4344 45.9883 58.4556C46.0762 58.4767 46.1722 58.4873 46.2764 58.4873C46.4033 58.4873 46.5075 58.4694 46.5889 58.4336C46.6719 58.3978 46.7329 58.3481 46.772 58.2847C46.8127 58.2212 46.833 58.1496 46.833 58.0698ZM49.4453 58.4043V57.2275C49.4453 57.1429 49.4315 57.0705 49.4038 57.0103C49.3761 56.9484 49.333 56.9004 49.2744 56.8662C49.2174 56.832 49.1434 56.8149 49.0522 56.8149C48.9741 56.8149 48.9066 56.8288 48.8496 56.8564C48.7926 56.8825 48.7487 56.9207 48.7178 56.9712C48.6868 57.02 48.6714 57.0778 48.6714 57.1445H47.9683C47.9683 57.0322 47.9943 56.9256 48.0464 56.8247C48.0985 56.7238 48.1742 56.6351 48.2734 56.5586C48.3727 56.4805 48.4907 56.4194 48.6274 56.3755C48.7658 56.3315 48.9204 56.3096 49.0913 56.3096C49.2964 56.3096 49.4787 56.3438 49.6382 56.4121C49.7977 56.4805 49.923 56.583 50.0142 56.7197C50.1069 56.8564 50.1533 57.0273 50.1533 57.2324V58.3628C50.1533 58.5076 50.1623 58.6265 50.1802 58.7192C50.1981 58.8104 50.2241 58.8901 50.2583 58.9585V59H49.5479C49.5137 58.9284 49.4876 58.8389 49.4697 58.7314C49.4535 58.6224 49.4453 58.5133 49.4453 58.4043ZM49.5381 57.3911L49.543 57.7891H49.1499C49.0571 57.7891 48.9766 57.7996 48.9082 57.8208C48.8398 57.842 48.7837 57.8721 48.7397 57.9111C48.6958 57.9486 48.6632 57.9925 48.6421 58.043C48.6226 58.0934 48.6128 58.1488 48.6128 58.209C48.6128 58.2692 48.6266 58.3237 48.6543 58.3726C48.682 58.4198 48.7218 58.4572 48.7739 58.4849C48.826 58.5109 48.887 58.5239 48.957 58.5239C49.0628 58.5239 49.1548 58.5028 49.2329 58.4604C49.311 58.4181 49.3713 58.366 49.4136 58.3042C49.4575 58.2424 49.4803 58.1838 49.4819 58.1284L49.6675 58.4263C49.6414 58.493 49.6056 58.5622 49.5601 58.6338C49.5161 58.7054 49.46 58.7729 49.3916 58.8364C49.3232 58.8983 49.241 58.9495 49.145 58.9902C49.049 59.0293 48.9351 59.0488 48.8032 59.0488C48.6356 59.0488 48.4834 59.0155 48.3467 58.9487C48.2116 58.8804 48.1042 58.7868 48.0244 58.668C47.9463 58.5475 47.9072 58.4108 47.9072 58.2578C47.9072 58.1195 47.9333 57.9966 47.9854 57.8892C48.0374 57.7817 48.1139 57.6914 48.2148 57.6182C48.3174 57.5433 48.4451 57.4871 48.5981 57.4497C48.7511 57.4106 48.9285 57.3911 49.1304 57.3911H49.5381ZM51.3984 56.9346V59H50.6953V56.3584H51.3569L51.3984 56.9346ZM52.1943 56.3413L52.1821 56.9932C52.1479 56.9883 52.1064 56.9842 52.0576 56.981C52.0104 56.9761 51.9673 56.9736 51.9282 56.9736C51.8289 56.9736 51.7427 56.9867 51.6694 57.0127C51.5978 57.0371 51.5376 57.0737 51.4888 57.1226C51.4416 57.1714 51.4058 57.2308 51.3813 57.3008C51.3586 57.3708 51.3455 57.4505 51.3423 57.54L51.2007 57.4961C51.2007 57.3252 51.2178 57.1681 51.252 57.0249C51.2861 56.88 51.3358 56.7539 51.4009 56.6465C51.4676 56.5391 51.549 56.4561 51.645 56.3975C51.741 56.3389 51.8509 56.3096 51.9746 56.3096C52.0137 56.3096 52.0535 56.3128 52.0942 56.3193C52.1349 56.3242 52.1683 56.3315 52.1943 56.3413ZM54.6284 58.4507V59H52.6216V58.4507H54.6284ZM54.5894 56.7637L52.9048 59H52.4336V58.5825L54.1108 56.3584H54.5894V56.7637ZM54.3403 56.3584V56.9102H52.4727V56.3584H54.3403ZM56.2471 59.0488C56.042 59.0488 55.8581 59.0163 55.6953 58.9512C55.5326 58.8844 55.3942 58.7925 55.2803 58.6753C55.168 58.5581 55.0817 58.4222 55.0215 58.2676C54.9613 58.1113 54.9312 57.9453 54.9312 57.7695V57.6719C54.9312 57.4717 54.9596 57.2886 55.0166 57.1226C55.0736 56.9565 55.1549 56.8125 55.2607 56.6904C55.3682 56.5684 55.4984 56.4748 55.6514 56.4097C55.8044 56.3429 55.9769 56.3096 56.1689 56.3096C56.3561 56.3096 56.5221 56.3405 56.667 56.4023C56.8118 56.4642 56.9331 56.5521 57.0308 56.666C57.13 56.7799 57.2049 56.9167 57.2554 57.0762C57.3058 57.234 57.3311 57.4098 57.3311 57.6035V57.8965H55.2314V57.4277H56.6401V57.374C56.6401 57.2764 56.6222 57.1893 56.5864 57.1128C56.5522 57.0347 56.5002 56.9728 56.4302 56.9272C56.3602 56.8817 56.2707 56.8589 56.1616 56.8589C56.0688 56.8589 55.9891 56.8792 55.9224 56.9199C55.8556 56.9606 55.8011 57.0176 55.7588 57.0908C55.7181 57.1641 55.6872 57.2503 55.666 57.3496C55.6465 57.4473 55.6367 57.5547 55.6367 57.6719V57.7695C55.6367 57.8753 55.6514 57.973 55.6807 58.0625C55.7116 58.152 55.7547 58.2293 55.8101 58.2944C55.867 58.3595 55.9354 58.41 56.0151 58.4458C56.0965 58.4816 56.1885 58.4995 56.291 58.4995C56.418 58.4995 56.536 58.4751 56.645 58.4263C56.7557 58.3758 56.8509 58.3001 56.9307 58.1992L57.2725 58.5703C57.2171 58.6501 57.1414 58.7266 57.0454 58.7998C56.951 58.873 56.8371 58.9333 56.7036 58.9805C56.5701 59.026 56.418 59.0488 56.2471 59.0488ZM59.2915 58.4238V55.25H59.9995V59H59.3623L59.2915 58.4238ZM57.6216 57.7109V57.6597C57.6216 57.4578 57.6444 57.2747 57.6899 57.1104C57.7355 56.9443 57.8022 56.8019 57.8901 56.6831C57.978 56.5643 58.0863 56.4723 58.2148 56.4072C58.3434 56.3421 58.4899 56.3096 58.6543 56.3096C58.8089 56.3096 58.944 56.3421 59.0596 56.4072C59.1768 56.4723 59.276 56.5651 59.3574 56.6855C59.4404 56.8044 59.5072 56.9451 59.5576 57.1079C59.6081 57.269 59.6447 57.4456 59.6675 57.6377V57.75C59.6447 57.9339 59.6081 58.1048 59.5576 58.2627C59.5072 58.4206 59.4404 58.5589 59.3574 58.6777C59.276 58.7949 59.1768 58.8861 59.0596 58.9512C58.9424 59.0163 58.8057 59.0488 58.6494 59.0488C58.485 59.0488 58.3385 59.0155 58.21 58.9487C58.083 58.882 57.9756 58.7884 57.8877 58.668C57.8014 58.5475 57.7355 58.4059 57.6899 58.2432C57.6444 58.0804 57.6216 57.903 57.6216 57.7109ZM58.3247 57.6597V57.7109C58.3247 57.82 58.3328 57.9217 58.3491 58.0161C58.367 58.1105 58.3955 58.1943 58.4346 58.2676C58.4753 58.3392 58.5273 58.3953 58.5908 58.436C58.6559 58.4751 58.7349 58.4946 58.8276 58.4946C58.9481 58.4946 59.0474 58.4678 59.1255 58.4141C59.2036 58.3587 59.263 58.283 59.3037 58.187C59.346 58.091 59.3704 57.9803 59.377 57.855V57.5352C59.3721 57.4326 59.3574 57.3407 59.333 57.2593C59.3102 57.1763 59.276 57.1055 59.2305 57.0469C59.1865 56.9883 59.1312 56.9427 59.0645 56.9102C58.9993 56.8776 58.922 56.8613 58.8325 56.8613C58.7414 56.8613 58.6632 56.8825 58.5981 56.9248C58.533 56.9655 58.4801 57.0216 58.4395 57.0933C58.4004 57.1649 58.3711 57.2495 58.3516 57.3472C58.3337 57.4432 58.3247 57.5474 58.3247 57.6597ZM60.4365 57.7061V57.6548C60.4365 57.4611 60.4642 57.2829 60.5195 57.1201C60.5749 56.9557 60.6554 56.8133 60.7612 56.6929C60.867 56.5724 60.9972 56.4788 61.1519 56.4121C61.3065 56.3438 61.4839 56.3096 61.6841 56.3096C61.8843 56.3096 62.0625 56.3438 62.2188 56.4121C62.375 56.4788 62.506 56.5724 62.6118 56.6929C62.7192 56.8133 62.8006 56.9557 62.856 57.1201C62.9113 57.2829 62.939 57.4611 62.939 57.6548V57.7061C62.939 57.8981 62.9113 58.0763 62.856 58.2407C62.8006 58.4035 62.7192 58.5459 62.6118 58.668C62.506 58.7884 62.3758 58.882 62.2212 58.9487C62.0666 59.0155 61.8892 59.0488 61.689 59.0488C61.4888 59.0488 61.3105 59.0155 61.1543 58.9487C60.9997 58.882 60.8687 58.7884 60.7612 58.668C60.6554 58.5459 60.5749 58.4035 60.5195 58.2407C60.4642 58.0763 60.4365 57.8981 60.4365 57.7061ZM61.1396 57.6548V57.7061C61.1396 57.8167 61.1494 57.9201 61.1689 58.0161C61.1885 58.1121 61.2194 58.1968 61.2617 58.27C61.3057 58.3416 61.3626 58.3978 61.4326 58.4385C61.5026 58.4792 61.5881 58.4995 61.689 58.4995C61.7866 58.4995 61.8704 58.4792 61.9404 58.4385C62.0104 58.3978 62.0666 58.3416 62.1089 58.27C62.1512 58.1968 62.1821 58.1121 62.2017 58.0161C62.2228 57.9201 62.2334 57.8167 62.2334 57.7061V57.6548C62.2334 57.5474 62.2228 57.4465 62.2017 57.3521C62.1821 57.256 62.1504 57.1714 62.1064 57.0981C62.0641 57.0233 62.008 56.9647 61.938 56.9224C61.868 56.88 61.7834 56.8589 61.6841 56.8589C61.5848 56.8589 61.5002 56.88 61.4302 56.9224C61.3618 56.9647 61.3057 57.0233 61.2617 57.0981C61.2194 57.1714 61.1885 57.256 61.1689 57.3521C61.1494 57.4465 61.1396 57.5474 61.1396 57.6548Z" fill="white"/>
</g>
<defs>
<filter id="filter0_d_228_371" x="0.596224" y="0.593262" width="83.8085" height="68.7065" filterUnits="userSpaceOnUse" color-interpolation-filters="sRGB">
<feFlood flood-opacity="0" result="BackgroundImageFix"/>
<feColorMatrix in="SourceAlpha" type="matrix" values="0 0 0 0 0 0 0 0 0 0 0 0 0 0 0 0 0 0 127 0" result="hardAlpha"/>
<feOffset dy="1.40378"/>
<feGaussianBlur stdDeviation="0.701888"/>
<feComposite in2="hardAlpha" operator="out"/>
<feColorMatrix type="matrix" values="0 0 0 0 0 0 0 0 0 0 0 0 0 0 0 0 0 0 0.25 0"/>
<feBlend mode="normal" in2="BackgroundImageFix" result="effect1_dropShadow_228_371"/>
<feBlend mode="normal" in="SourceGraphic" in2="effect1_dropShadow_228_371" result="shape"/>
</filter>
<linearGradient id="paint0_linear_228_371" x1="43.1044" y1="0" x2="43.1044" y2="46.5448" gradientUnits="userSpaceOnUse">
<stop stop-color="#FFE175"/>
<stop offset="1" stop-color="#FFD12E"/>
</linearGradient>
<linearGradient id="paint1_linear_228_371" x1="43.2791" y1="13.2314" x2="43.2791" y2="31.5026" gradientUnits="userSpaceOnUse">
<stop stop-color="white"/>
<stop offset="1" stop-color="#FFE86D"/>
</linearGradient>
</defs>
</svg>
