<?xml version="1.0" encoding="UTF-8"?>
<!DOCTYPE svg PUBLIC "-//W3C//DTD SVG 1.1//EN" "http://www.w3.org/Graphics/SVG/1.1/DTD/svg11.dtd">
<svg xmlns="http://www.w3.org/2000/svg" version="1.1" width="1920px" height="1280px" style="shape-rendering:geometricPrecision; text-rendering:geometricPrecision; image-rendering:optimizeQuality; fill-rule:evenodd; clip-rule:evenodd" xmlns:xlink="http://www.w3.org/1999/xlink">
<g><path style="opacity:0.999" fill="#637ef4" d="M 1753.5,131.5 C 1753.82,133.048 1754.82,133.715 1756.5,133.5C 1768.02,139.937 1778.02,148.271 1786.5,158.5C 1787.08,160.749 1788.41,162.415 1790.5,163.5C 1790.74,165.404 1791.74,166.738 1793.5,167.5C 1793.74,169.404 1794.74,170.738 1796.5,171.5C 1796.43,173.027 1797.09,174.027 1798.5,174.5C 1799.34,174.842 1799.67,175.508 1799.5,176.5C 1799.43,178.027 1800.09,179.027 1801.5,179.5C 1801.43,181.027 1802.09,182.027 1803.5,182.5C 1806.62,187.07 1808.95,192.07 1810.5,197.5C 1810.17,200.491 1811.17,202.824 1813.5,204.5C 1813.5,204.833 1813.5,205.167 1813.5,205.5C 1814.06,210.165 1815.39,214.498 1817.5,218.5C 1818.43,219.568 1818.77,220.901 1818.5,222.5C 1818.29,225.495 1818.96,228.162 1820.5,230.5C 1823.22,241.627 1824.55,252.96 1824.5,264.5C 1824.62,280.87 1823.96,297.203 1822.5,313.5C 1822.7,315.95 1822.37,318.283 1821.5,320.5C 1819.23,326.215 1817.57,332.215 1816.5,338.5C 1816.5,339.167 1816.5,339.833 1816.5,340.5C 1814.9,341.287 1814.23,342.62 1814.5,344.5C 1813.07,345.78 1812.4,347.447 1812.5,349.5C 1808.02,362.472 1801.02,373.806 1791.5,383.5C 1790.09,383.973 1789.43,384.973 1789.5,386.5C 1774.19,402.612 1755.85,414.112 1734.5,421C 1737.89,422.075 1741.23,423.242 1744.5,424.5C 1744.82,426.048 1745.82,426.715 1747.5,426.5C 1749.28,426.893 1750.95,427.559 1752.5,428.5C 1752.82,430.048 1753.82,430.715 1755.5,430.5C 1765.81,435.82 1774.81,442.82 1782.5,451.5C 1783.08,453.749 1784.41,455.415 1786.5,456.5C 1787.5,456.833 1788.17,457.5 1788.5,458.5C 1788.74,460.404 1789.74,461.738 1791.5,462.5C 1791.43,464.027 1792.09,465.027 1793.5,465.5C 1793.74,467.404 1794.74,468.738 1796.5,469.5C 1796.43,471.027 1797.09,472.027 1798.5,472.5C 1799.34,472.842 1799.67,473.508 1799.5,474.5C 1799.43,476.027 1800.09,477.027 1801.5,477.5C 1806.22,484.953 1809.89,492.953 1812.5,501.5C 1813.06,506.165 1814.39,510.498 1816.5,514.5C 1819.89,524.106 1821.89,534.106 1822.5,544.5C 1822.39,550.726 1823.05,556.726 1824.5,562.5C 1824.5,564.167 1824.5,565.833 1824.5,567.5C 1824.33,583.838 1824,600.171 1823.5,616.5C 1823.53,620.869 1823.2,625.202 1822.5,629.5C 1821.78,629.918 1821.28,630.584 1821,631.5C 1820.17,636.137 1819.67,640.804 1819.5,645.5C 1819.5,646.167 1819.5,646.833 1819.5,647.5C 1816.41,655.508 1814.08,663.841 1812.5,672.5C 1812.74,673.791 1812.4,674.791 1811.5,675.5C 1809.93,677.102 1809.26,679.102 1809.5,681.5C 1809.67,682.492 1809.34,683.158 1808.5,683.5C 1807.07,684.78 1806.4,686.447 1806.5,688.5C 1790.81,728.854 1762.15,754.854 1720.5,766.5C 1715.62,766.791 1711.29,768.124 1707.5,770.5C 1568.36,787.557 1501.03,725.891 1505.5,585.5C 1534.17,585.5 1562.83,585.5 1591.5,585.5C 1591.25,598.197 1591.58,610.863 1592.5,623.5C 1592.32,627.122 1592.99,630.456 1594.5,633.5C 1595.83,640.161 1597.17,646.828 1598.5,653.5C 1598.12,655.698 1598.79,657.365 1600.5,658.5C 1602.77,663.383 1604.77,668.383 1606.5,673.5C 1606.43,675.027 1607.09,676.027 1608.5,676.5C 1609.34,676.842 1609.67,677.508 1609.5,678.5C 1609.74,680.404 1610.74,681.738 1612.5,682.5C 1616.59,686.929 1621.26,690.596 1626.5,693.5C 1626.82,695.048 1627.82,695.715 1629.5,695.5C 1651.29,704.125 1673.29,704.625 1695.5,697C 1711.15,690.018 1721.98,678.518 1728,662.5C 1734.31,643.691 1737.64,624.358 1738,604.5C 1740.87,572.563 1736.87,541.563 1726,511.5C 1713.48,483.657 1691.98,468.157 1661.5,465C 1654.84,464.289 1648.18,463.789 1641.5,463.5C 1641.5,434.833 1641.5,406.167 1641.5,377.5C 1658.53,378.031 1675.19,375.864 1691.5,371C 1713.7,363.468 1727.53,348.301 1733,325.5C 1739.93,295.585 1740.26,265.585 1734,235.5C 1728.51,205.342 1710.68,188.175 1680.5,184C 1664.09,182.115 1648.09,183.781 1632.5,189C 1625.15,192.677 1618.65,197.511 1613,203.5C 1608.87,210.097 1605.04,216.764 1601.5,223.5C 1596.85,233.555 1594.01,244.222 1593,255.5C 1591.72,270.471 1591.22,285.471 1591.5,300.5C 1562.83,300.5 1534.17,300.5 1505.5,300.5C 1503.35,266.666 1507.52,233.666 1518,201.5C 1536.12,155.719 1569.29,127.552 1617.5,117C 1648.1,111.412 1678.77,111.079 1709.5,116C 1724.94,119.09 1739.61,124.257 1753.5,131.5 Z"/></g>
<g><path style="opacity:1" fill="#667ef2" d="M 1278.5,241.5 C 1273.26,241.882 1268.26,242.882 1263.5,244.5C 1246.72,248.322 1229.72,251.656 1212.5,254.5C 1212.5,232.5 1212.5,210.5 1212.5,188.5C 1243.18,181.329 1272.51,170.496 1300.5,156C 1317.75,146.584 1332.75,134.418 1345.5,119.5C 1367.82,118.5 1390.16,118.167 1412.5,118.5C 1412.5,334.5 1412.5,550.5 1412.5,766.5C 1383.5,766.5 1354.5,766.5 1325.5,766.5C 1325.83,588.165 1325.5,409.832 1324.5,231.5C 1309.36,235.729 1294.02,239.062 1278.5,241.5 Z"/></g>
<g><path style="opacity:1" fill="#1e1e1e" d="M 216.5,127.5 C 249.169,124.481 280.835,128.647 311.5,140C 340.45,153.617 361.283,175.117 374,204.5C 385.096,232.146 391.929,260.812 394.5,290.5C 369.274,297.909 343.941,304.909 318.5,311.5C 318.47,281.177 311.637,252.51 298,225.5C 284.542,205.684 265.709,195.684 241.5,195.5C 182.978,198.2 158.478,228.533 168,286.5C 171.32,305.474 179.653,321.808 193,335.5C 236.238,375.408 280.071,414.575 324.5,453C 351.414,478.576 372.914,508.076 389,541.5C 408.36,589.824 409.36,638.491 392,687.5C 371.062,732.235 336.228,759.068 287.5,768C 252.039,773.751 217.373,770.751 183.5,759C 148.417,743.584 122.917,718.418 107,683.5C 92.7521,652.261 86.2521,619.761 87.5,586C 113.142,579.006 138.809,572.173 164.5,565.5C 165.362,595.98 171.529,625.314 183,653.5C 202.525,692.343 233.692,707.176 276.5,698C 304.154,688.899 318.987,669.732 321,640.5C 324.524,609.763 317.524,581.763 300,556.5C 288.645,541.138 275.812,526.971 261.5,514C 224.13,480.295 186.464,446.962 148.5,414C 98.8845,369.509 78.7178,314.009 88,247.5C 95.4207,191.092 125.921,153.592 179.5,135C 191.8,131.622 204.133,129.122 216.5,127.5 Z"/></g>
<g><path style="opacity:0.902" fill="#c0797a" d="M 1753.5,131.5 C 1754.71,131.932 1755.71,132.599 1756.5,133.5C 1754.82,133.715 1753.82,133.048 1753.5,131.5 Z"/></g>
<g><path style="opacity:0.993" fill="#1f1e1d" d="M 469.5,159.5 C 497.833,159.5 526.167,159.5 554.5,159.5C 554.5,188.833 554.5,218.167 554.5,247.5C 526.167,247.5 497.833,247.5 469.5,247.5C 469.5,218.167 469.5,188.833 469.5,159.5 Z"/></g>
<g><path style="opacity:0.867" fill="#c37760" d="M 1786.5,158.5 C 1788.59,159.585 1789.92,161.251 1790.5,163.5C 1788.41,162.415 1787.08,160.749 1786.5,158.5 Z"/></g>
<g><path style="opacity:0.922" fill="#b97f6e" d="M 1790.5,163.5 C 1792.26,164.262 1793.26,165.596 1793.5,167.5C 1791.74,166.738 1790.74,165.404 1790.5,163.5 Z"/></g>
<g><path style="opacity:0.945" fill="#b3796e" d="M 1793.5,167.5 C 1795.26,168.262 1796.26,169.596 1796.5,171.5C 1794.74,170.738 1793.74,169.404 1793.5,167.5 Z"/></g>
<g><path style="opacity:0.514" fill="#bc7b57" d="M 1796.5,171.5 C 1797.91,171.973 1798.57,172.973 1798.5,174.5C 1797.09,174.027 1796.43,173.027 1796.5,171.5 Z"/></g>
<g><path style="opacity:0.6" fill="#ae7e66" d="M 1799.5,176.5 C 1800.91,176.973 1801.57,177.973 1801.5,179.5C 1800.09,179.027 1799.43,178.027 1799.5,176.5 Z"/></g>
<g><path style="opacity:0.345" fill="#cb7240" d="M 1801.5,179.5 C 1802.91,179.973 1803.57,180.973 1803.5,182.5C 1802.09,182.027 1801.43,181.027 1801.5,179.5 Z"/></g>
<g><path style="opacity:0.998" fill="#1e1e1e" d="M 747.5,369.5 C 746.334,468.332 746.168,567.332 747,666.5C 747.191,668.708 747.691,670.708 748.5,672.5C 749.396,681.694 752.729,689.861 758.5,697C 768.328,703.333 779.161,706.166 791,705.5C 800.519,705.011 810.019,704.345 819.5,703.5C 819.827,724.409 819.493,745.242 818.5,766C 791.932,770.136 765.265,771.136 738.5,769C 697.842,762.676 674.008,739.176 667,698.5C 666.077,694.21 665.577,689.877 665.5,685.5C 664.867,580.005 664.2,474.672 663.5,369.5C 647.833,369.5 632.167,369.5 616.5,369.5C 616.5,350.833 616.5,332.167 616.5,313.5C 632.167,313.5 647.833,313.5 663.5,313.5C 663.5,269.833 663.5,226.167 663.5,182.5C 691.5,182.5 719.5,182.5 747.5,182.5C 747.5,226.167 747.5,269.833 747.5,313.5C 771.5,313.5 795.5,313.5 819.5,313.5C 819.5,332.167 819.5,350.833 819.5,369.5C 795.5,369.5 771.5,369.5 747.5,369.5 Z"/></g>
<g><path style="opacity:1" fill="#ae7c7a" d="M 1810.5,197.5 C 1812.07,199.509 1813.07,201.843 1813.5,204.5C 1811.17,202.824 1810.17,200.491 1810.5,197.5 Z"/></g>
<g><path style="opacity:1" fill="#a47f79" d="M 1813.5,205.5 C 1815.61,209.502 1816.94,213.835 1817.5,218.5C 1815.39,214.498 1814.06,210.165 1813.5,205.5 Z"/></g>
<g><path style="opacity:0.655" fill="#c37f53" d="M 1601.5,223.5 C 1597.79,234.543 1595.29,245.877 1594,257.5C 1593.06,271.984 1592.23,286.317 1591.5,300.5C 1591.22,285.471 1591.72,270.471 1593,255.5C 1594.01,244.222 1596.85,233.555 1601.5,223.5 Z"/></g>
<g><path style="opacity:0.714" fill="#a87f65" d="M 1818.5,222.5 C 1819.77,224.905 1820.43,227.572 1820.5,230.5C 1818.96,228.162 1818.29,225.495 1818.5,222.5 Z"/></g>
<g><path style="opacity:0.769" fill="#937cb5" d="M 1278.5,241.5 C 1273.79,243.375 1268.79,244.375 1263.5,244.5C 1268.26,242.882 1273.26,241.882 1278.5,241.5 Z"/></g>
<g><path style="opacity:0.886" fill="#b57f58" d="M 1824.5,264.5 C 1826.04,280.909 1825.37,297.242 1822.5,313.5C 1823.96,297.203 1824.62,280.87 1824.5,264.5 Z"/></g>
<g><path style="opacity:0.998" fill="#1e1e1e" d="M 984.5,307.5 C 1011.08,305.312 1037.08,308.145 1062.5,316C 1087.91,325.745 1105.74,343.245 1116,368.5C 1122.68,384.882 1127.01,401.882 1129,419.5C 1132.98,459.729 1134.48,500.063 1133.5,540.5C 1074.17,540.5 1014.83,540.5 955.5,540.5C 955.118,580.199 955.951,619.865 958,659.5C 959.351,676.367 966.184,690.534 978.5,702C 990.3,707.193 1002.63,708.859 1015.5,707C 1029.17,704.99 1038.34,697.49 1043,684.5C 1047.37,672.56 1049.71,660.227 1050,647.5C 1050.5,633.837 1050.67,620.171 1050.5,606.5C 1077.83,606.5 1105.17,606.5 1132.5,606.5C 1133.99,633.889 1131.49,660.889 1125,687.5C 1112.64,733.193 1083.14,760.027 1036.5,768C 1008.23,772.181 980.232,770.848 952.5,764C 921.109,754.944 899.609,735.111 888,704.5C 882.124,689.665 878.124,674.331 876,658.5C 873.698,640.908 872.365,623.241 872,605.5C 871.333,561.167 871.333,516.833 872,472.5C 871.772,439.652 876.772,407.652 887,376.5C 900.356,340.56 925.856,318.727 963.5,311C 970.634,309.77 977.634,308.603 984.5,307.5 Z M 994.5,369.5 C 1012.14,366.656 1026.97,371.656 1039,384.5C 1044.82,395.787 1048.16,407.787 1049,420.5C 1050.34,445.145 1050.84,469.812 1050.5,494.5C 1018.83,494.5 987.167,494.5 955.5,494.5C 955.828,475.164 956.328,455.831 957,436.5C 957.684,424.36 959.351,412.36 962,400.5C 965.924,382.739 976.757,372.406 994.5,369.5 Z"/></g>
<g><path style="opacity:1" fill="#1e1e1e" d="M 469.5,313.5 C 497.5,313.5 525.5,313.5 553.5,313.5C 553.5,463.5 553.5,613.5 553.5,763.5C 525.5,763.5 497.5,763.5 469.5,763.5C 469.5,613.5 469.5,463.5 469.5,313.5 Z"/></g>
<g><path style="opacity:0.929" fill="#b17f67" d="M 1821.5,320.5 C 1820.75,326.859 1819.08,332.859 1816.5,338.5C 1817.57,332.215 1819.23,326.215 1821.5,320.5 Z"/></g>
<g><path style="opacity:0.537" fill="#c97349" d="M 1816.5,340.5 C 1816.34,342.153 1815.67,343.486 1814.5,344.5C 1814.23,342.62 1814.9,341.287 1816.5,340.5 Z"/></g>
<g><path style="opacity:0.647" fill="#af7e65" d="M 1814.5,344.5 C 1814.6,346.553 1813.93,348.22 1812.5,349.5C 1812.4,347.447 1813.07,345.78 1814.5,344.5 Z"/></g>
<g><path style="opacity:0.424" fill="#081f36" d="M 663.5,369.5 C 664.2,474.672 664.867,580.005 665.5,685.5C 664.676,681.688 664.176,677.688 664,673.5C 663.5,572.167 663.333,470.834 663.5,369.5 Z"/></g>
<g><path style="opacity:0.784" fill="#261f11" d="M 747.5,369.5 C 747.185,470.512 747.518,571.512 748.5,672.5C 747.691,670.708 747.191,668.708 747,666.5C 746.168,567.332 746.334,468.332 747.5,369.5 Z"/></g>
<g><path style="opacity:0.008" fill="#d58142" d="M 1791.5,383.5 C 1791.57,385.027 1790.91,386.027 1789.5,386.5C 1789.43,384.973 1790.09,383.973 1791.5,383.5 Z"/></g>
<g><path style="opacity:0.863" fill="#bf7d80" d="M 1744.5,424.5 C 1745.71,424.932 1746.71,425.599 1747.5,426.5C 1745.82,426.715 1744.82,426.048 1744.5,424.5 Z"/></g>
<g><path style="opacity:0.941" fill="#bf7f83" d="M 1752.5,428.5 C 1753.71,428.932 1754.71,429.599 1755.5,430.5C 1753.82,430.715 1752.82,430.048 1752.5,428.5 Z"/></g>
<g><path style="opacity:0.843" fill="#c17c62" d="M 1782.5,451.5 C 1784.59,452.585 1785.92,454.251 1786.5,456.5C 1784.41,455.415 1783.08,453.749 1782.5,451.5 Z"/></g>
<g><path style="opacity:0.851" fill="#c07f61" d="M 1788.5,458.5 C 1790.26,459.262 1791.26,460.596 1791.5,462.5C 1789.74,461.738 1788.74,460.404 1788.5,458.5 Z"/></g>
<g><path style="opacity:0.894" fill="#b37e73" d="M 1791.5,462.5 C 1792.91,462.973 1793.57,463.973 1793.5,465.5C 1792.09,465.027 1791.43,464.027 1791.5,462.5 Z"/></g>
<g><path style="opacity:0.792" fill="#ae7d71" d="M 1793.5,465.5 C 1795.26,466.262 1796.26,467.596 1796.5,469.5C 1794.74,468.738 1793.74,467.404 1793.5,465.5 Z"/></g>
<g><path style="opacity:0.443" fill="#c1784e" d="M 1796.5,469.5 C 1797.91,469.973 1798.57,470.973 1798.5,472.5C 1797.09,472.027 1796.43,471.027 1796.5,469.5 Z"/></g>
<g><path style="opacity:0.467" fill="#ba7c52" d="M 1799.5,474.5 C 1800.91,474.973 1801.57,475.973 1801.5,477.5C 1800.09,477.027 1799.43,476.027 1799.5,474.5 Z"/></g>
<g><path style="opacity:0.965" fill="#b47f61" d="M 1812.5,501.5 C 1814.61,505.502 1815.94,509.835 1816.5,514.5C 1814.39,510.498 1813.06,506.165 1812.5,501.5 Z"/></g>
<g><path style="opacity:0.678" fill="#aa7f62" d="M 1822.5,544.5 C 1823.81,550.288 1824.48,556.288 1824.5,562.5C 1823.05,556.726 1822.39,550.726 1822.5,544.5 Z"/></g>
<g><path style="opacity:0.878" fill="#b17f61" d="M 1824.5,567.5 C 1825.84,583.858 1825.51,600.192 1823.5,616.5C 1824,600.171 1824.33,583.838 1824.5,567.5 Z"/></g>
<g><path style="opacity:0.392" fill="#c9803d" d="M 1591.5,585.5 C 1592.27,598.013 1592.93,610.68 1593.5,623.5C 1593.17,623.5 1592.83,623.5 1592.5,623.5C 1591.58,610.863 1591.25,598.197 1591.5,585.5 Z"/></g>
<g><path style="opacity:0.553" fill="#b27e59" d="M 1592.5,623.5 C 1592.83,623.5 1593.17,623.5 1593.5,623.5C 1593.83,626.833 1594.17,630.167 1594.5,633.5C 1592.99,630.456 1592.32,627.122 1592.5,623.5 Z"/></g>
<g><path style="opacity:0.714" fill="#bc7d5c" d="M 1822.5,629.5 C 1821.91,635.037 1820.91,640.37 1819.5,645.5C 1819.67,640.804 1820.17,636.137 1821,631.5C 1821.28,630.584 1821.78,629.918 1822.5,629.5 Z"/></g>
<g><path style="opacity:0.741" fill="#b77f61" d="M 1819.5,647.5 C 1817.92,656.154 1815.59,664.487 1812.5,672.5C 1814.08,663.841 1816.41,655.508 1819.5,647.5 Z"/></g>
<g><path style="opacity:0.984" fill="#aa7e6c" d="M 1598.5,653.5 C 1599.54,654.93 1600.2,656.597 1600.5,658.5C 1598.79,657.365 1598.12,655.698 1598.5,653.5 Z"/></g>
<g><path style="opacity:0.427" fill="#bc7a4f" d="M 1606.5,673.5 C 1607.91,673.973 1608.57,674.973 1608.5,676.5C 1607.09,676.027 1606.43,675.027 1606.5,673.5 Z"/></g>
<g><path style="opacity:0.757" fill="#ab7f6c" d="M 1811.5,675.5 C 1811.41,677.786 1810.74,679.786 1809.5,681.5C 1809.26,679.102 1809.93,677.102 1811.5,675.5 Z"/></g>
<g><path style="opacity:0.922" fill="#b5806c" d="M 1609.5,678.5 C 1611.26,679.262 1612.26,680.596 1612.5,682.5C 1610.74,681.738 1609.74,680.404 1609.5,678.5 Z"/></g>
<g><path style="opacity:0.647" fill="#ab7e67" d="M 1808.5,683.5 C 1808.6,685.553 1807.93,687.22 1806.5,688.5C 1806.4,686.447 1807.07,684.78 1808.5,683.5 Z"/></g>
<g><path style="opacity:0.922" fill="#bf7b7e" d="M 1626.5,693.5 C 1627.71,693.932 1628.71,694.599 1629.5,695.5C 1627.82,695.715 1626.82,695.048 1626.5,693.5 Z"/></g>
<g><path style="opacity:0.686" fill="#9d7cac" d="M 1720.5,766.5 C 1716.38,768.283 1712.05,769.616 1707.5,770.5C 1711.29,768.124 1715.62,766.791 1720.5,766.5 Z"/></g>
<g><path style="opacity:1" fill="#76e885" d="M 209.5,900.5 C 208.778,900.918 208.278,901.584 208,902.5C 207.186,907.02 207.353,911.354 208.5,915.5C 209.595,920.947 211.762,925.947 215,930.5C 233.333,947.5 251.667,964.5 270,981.5C 278.399,990.965 283.565,1001.96 285.5,1014.5C 285.693,1024.19 285.36,1033.86 284.5,1043.5C 279.328,1061.12 267.661,1071.96 249.5,1076C 213.826,1081.97 191.66,1067.47 183,1032.5C 182.202,1027.14 181.368,1021.81 180.5,1016.5C 189.245,1013.53 198.078,1010.86 207,1008.5C 208.001,1020.84 211.334,1032.5 217,1043.5C 225.726,1053.31 236.226,1055.81 248.5,1051C 255.972,1045.89 259.639,1038.72 259.5,1029.5C 258.996,1019.82 255.83,1011.15 250,1003.5C 231.524,985.934 212.857,968.601 194,951.5C 181.044,933.091 178.044,913.091 185,891.5C 191.501,876.315 203.001,867.482 219.5,865C 260.59,859.765 281.59,877.765 282.5,919C 274.51,921.275 266.51,923.442 258.5,925.5C 257.963,915.314 255.463,905.647 251,896.5C 243.268,887.608 233.768,885.108 222.5,889C 216.463,891.002 212.13,894.835 209.5,900.5 Z"/></g>
<g><path style="opacity:1" fill="#7ae883" d="M 416.5,865.5 C 426.083,865.182 435.583,865.515 445,866.5C 445.5,935.833 445.667,1005.17 445.5,1074.5C 435.833,1074.5 426.167,1074.5 416.5,1074.5C 416.5,1004.83 416.5,935.167 416.5,865.5 Z"/></g>
<g><path style="opacity:0.999" fill="#76e885" d="M 1164.5,907.5 C 1165.62,945.488 1165.78,983.488 1165,1021.5C 1164.42,1025.83 1163.92,1030.17 1163.5,1034.5C 1159.04,1057.79 1145.04,1070.96 1121.5,1074C 1100.84,1074.5 1080.17,1074.67 1059.5,1074.5C 1059.5,1004.83 1059.5,935.167 1059.5,865.5C 1080.19,865.177 1100.86,865.677 1121.5,867C 1146.08,869.746 1160.41,883.246 1164.5,907.5 Z M 1089.5,888.5 C 1099.22,888.141 1108.89,888.641 1118.5,890C 1125.33,891.33 1130.16,895.163 1133,901.5C 1134.74,905.661 1135.74,909.995 1136,914.5C 1136.67,951.167 1136.67,987.833 1136,1024.5C 1135.89,1042.28 1127.05,1051.78 1109.5,1053C 1102.84,1053.5 1096.17,1053.67 1089.5,1053.5C 1089.5,998.5 1089.5,943.5 1089.5,888.5 Z"/></g>
<g><path style="opacity:0.963" fill="#7ae886" d="M 1192.5,874.5 C 1202.17,874.5 1211.83,874.5 1221.5,874.5C 1221.5,884.5 1221.5,894.5 1221.5,904.5C 1211.83,904.5 1202.17,904.5 1192.5,904.5C 1192.5,894.5 1192.5,884.5 1192.5,874.5 Z"/></g>
<g><path style="opacity:0.963" fill="#7ae886" d="M 1361.5,874.5 C 1371.17,874.5 1380.83,874.5 1390.5,874.5C 1390.5,884.5 1390.5,894.5 1390.5,904.5C 1380.83,904.5 1371.17,904.5 1361.5,904.5C 1361.5,894.5 1361.5,884.5 1361.5,874.5 Z"/></g>
<g><path style="opacity:0.963" fill="#7ae886" d="M 1605.5,874.5 C 1615.17,874.5 1624.83,874.5 1634.5,874.5C 1634.5,884.5 1634.5,894.5 1634.5,904.5C 1624.83,904.5 1615.17,904.5 1605.5,904.5C 1605.5,894.5 1605.5,884.5 1605.5,874.5 Z"/></g>
<g><path style="opacity:0.989" fill="#76e885" d="M 767.5,879.5 C 767.497,884.527 767.164,889.527 766.5,894.5C 764.308,904.46 757.974,909.46 747.5,909.5C 745.181,908.936 742.847,908.436 740.5,908C 731.495,904.164 722.495,900.33 713.5,896.5C 708.983,898.184 706.983,901.517 707.5,906.5C 701.833,906.5 696.167,906.5 690.5,906.5C 691.015,900.38 692.182,894.38 694,888.5C 700.074,879.249 708.574,876.082 719.5,879C 728.621,882.978 737.788,886.812 747,890.5C 748.711,890.561 750.044,889.894 751,888.5C 751.953,885.568 752.453,882.568 752.5,879.5C 757.5,879.5 762.5,879.5 767.5,879.5 Z"/></g>
<g><path style="opacity:0.831" fill="#b2e840" d="M 767.5,879.5 C 768.161,881.134 768.494,882.967 768.5,885C 768.579,888.451 767.913,891.618 766.5,894.5C 767.164,889.527 767.497,884.527 767.5,879.5 Z"/></g>
<g><path style="opacity:0.996" fill="#74e786" d="M 1453.5,944.5 C 1452.34,977.664 1452.17,1011 1453,1044.5C 1453.21,1046.06 1453.71,1047.39 1454.5,1048.5C 1455.98,1050.81 1457.98,1052.64 1460.5,1054C 1466.16,1054.5 1471.82,1054.67 1477.5,1054.5C 1477.5,1061.5 1477.5,1068.5 1477.5,1075.5C 1467.18,1077.41 1456.85,1077.57 1446.5,1076C 1434.13,1072.14 1427.29,1063.64 1426,1050.5C 1425.5,1015.17 1425.33,979.835 1425.5,944.5C 1420.17,944.5 1414.83,944.5 1409.5,944.5C 1409.5,938.167 1409.5,931.833 1409.5,925.5C 1414.83,925.5 1420.17,925.5 1425.5,925.5C 1425.5,911.167 1425.5,896.833 1425.5,882.5C 1434.83,882.5 1444.17,882.5 1453.5,882.5C 1453.5,896.833 1453.5,911.167 1453.5,925.5C 1461.5,925.5 1469.5,925.5 1477.5,925.5C 1477.5,931.833 1477.5,938.167 1477.5,944.5C 1469.5,944.5 1461.5,944.5 1453.5,944.5 Z"/></g>
<g><path style="opacity:0.404" fill="#bce833" d="M 209.5,900.5 C 208.671,905.453 208.337,910.453 208.5,915.5C 207.353,911.354 207.186,907.02 208,902.5C 208.278,901.584 208.778,900.918 209.5,900.5 Z"/></g>
<g><path style="opacity:1" fill="#74e885" d="M 388.5,958.5 C 389.422,984.152 389.756,1009.82 389.5,1035.5C 388.397,1062.77 374.23,1076.77 347,1077.5C 320.356,1076.86 306.023,1063.19 304,1036.5C 303.333,1012.5 303.333,988.5 304,964.5C 308.648,930.729 327.815,917.563 361.5,925C 378.02,930.027 387.02,941.194 388.5,958.5 Z M 332.5,1042.5 C 331.176,1013.84 331.176,985.169 332.5,956.5C 337.999,943.726 346.499,941.393 358,949.5C 360.768,955.167 362.102,961.167 362,967.5C 362.899,992.858 362.565,1018.19 361,1043.5C 358.653,1053.52 352.486,1057.35 342.5,1055C 336.8,1052.79 333.467,1048.63 332.5,1042.5 Z"/></g>
<g><path style="opacity:1" fill="#75e885" d="M 610.5,958.5 C 609.698,959.952 609.198,961.618 609,963.5C 608.333,987.833 608.333,1012.17 609,1036.5C 609.21,1038.06 609.71,1039.39 610.5,1040.5C 613.104,1054.77 621.104,1058.93 634.5,1053C 637.181,1050.81 638.681,1047.97 639,1044.5C 640.264,1035.55 640.764,1026.55 640.5,1017.5C 648.833,1017.5 657.167,1017.5 665.5,1017.5C 665.666,1026.51 665.5,1035.51 665,1044.5C 662.715,1064.62 651.548,1075.29 631.5,1076.5C 631.5,1080.5 631.5,1084.5 631.5,1088.5C 641.364,1089.68 649.864,1093.68 657,1100.5C 658.411,1102.65 659.245,1104.98 659.5,1107.5C 659.533,1111.87 659.2,1116.2 658.5,1120.5C 656.012,1126.49 651.678,1130.65 645.5,1133C 633.91,1136.41 622.41,1136.25 611,1132.5C 610.333,1127.5 610.333,1122.5 611,1117.5C 619.219,1120.31 627.386,1120.14 635.5,1117C 639.81,1111.49 639.143,1106.49 633.5,1102C 628.681,1099.67 623.681,1097.84 618.5,1096.5C 617.503,1089.87 617.17,1083.2 617.5,1076.5C 597.145,1074.88 585.645,1063.88 583,1043.5C 581.409,1017.2 581.076,990.862 582,964.5C 584.865,932.322 602.365,918.822 634.5,924C 652.623,926.123 662.79,936.29 665,954.5C 665.5,962.827 665.666,971.16 665.5,979.5C 657.167,979.5 648.833,979.5 640.5,979.5C 640.901,969.609 639.735,959.942 637,950.5C 629.119,942.558 621.119,942.558 613,950.5C 612.16,953.202 611.327,955.868 610.5,958.5 Z"/></g>
<g><path style="opacity:1" fill="#74e885" d="M 771.5,958.5 C 772.422,984.152 772.756,1009.82 772.5,1035.5C 771.397,1062.77 757.23,1076.77 730,1077.5C 703.356,1076.86 689.023,1063.19 687,1036.5C 686.333,1012.5 686.333,988.5 687,964.5C 691.648,930.729 710.815,917.563 744.5,925C 761.02,930.027 770.02,941.194 771.5,958.5 Z M 715.5,1042.5 C 714.176,1013.84 714.176,985.169 715.5,956.5C 720.999,943.726 729.499,941.393 741,949.5C 743.768,955.167 745.102,961.167 745,967.5C 745.899,992.858 745.565,1018.19 744,1043.5C 741.653,1053.52 735.486,1057.35 725.5,1055C 719.8,1052.79 716.467,1048.63 715.5,1042.5 Z"/></g>
<g><path style="opacity:0.993" fill="#75e885" d="M 822.5,1001.5 C 821.812,1006.59 821.479,1012.42 821.5,1019C 821.291,1027.72 821.958,1036.22 823.5,1044.5C 828.342,1055.77 836.342,1058.6 847.5,1053C 849.936,1050.29 851.436,1047.13 852,1043.5C 853.163,1036.55 853.663,1029.55 853.5,1022.5C 862.5,1022.5 871.5,1022.5 880.5,1022.5C 883.061,1065.77 863.061,1083.27 820.5,1075C 805.964,1069.14 797.797,1058.31 796,1042.5C 794.4,1016.87 794.067,991.198 795,965.5C 797.935,933.432 815.435,919.598 847.5,924C 862.592,925.289 872.426,933.123 877,947.5C 880.816,965.287 882.316,983.287 881.5,1001.5C 861.833,1001.5 842.167,1001.5 822.5,1001.5 Z M 822.5,985.5 C 822.034,974.006 823.034,962.672 825.5,951.5C 833.202,942.621 841.369,942.288 850,950.5C 852.991,961.962 854.158,973.628 853.5,985.5C 843.167,985.5 832.833,985.5 822.5,985.5 Z"/></g>
<g><path style="opacity:1" fill="#77e885" d="M 926.5,953.5 C 925.883,953.611 925.383,953.944 925,954.5C 924.233,958.594 924.566,962.594 926,966.5C 926.383,967.056 926.883,967.389 927.5,967.5C 942.465,981.965 957.299,996.631 972,1011.5C 982.495,1028.1 983.162,1045.1 974,1062.5C 961.117,1075.6 945.617,1080.1 927.5,1076C 907.325,1069.17 897.325,1055.17 897.5,1034C 905.141,1031.67 912.808,1029.51 920.5,1027.5C 920.944,1035.33 923.111,1042.67 927,1049.5C 933.598,1056.04 941.098,1057.21 949.5,1053C 955.053,1048.38 956.886,1042.55 955,1035.5C 953.359,1030.21 950.692,1025.55 947,1021.5C 936.778,1012.31 926.278,1003.48 915.5,995C 902.301,983.4 897.468,968.9 901,951.5C 906.148,932.539 918.648,923.206 938.5,923.5C 957.293,923.451 969.46,932.451 975,950.5C 975.881,954.504 976.714,958.504 977.5,962.5C 971.364,965.548 965.03,968.215 958.5,970.5C 956.897,963.191 954.397,956.191 951,949.5C 941.328,941.952 933.161,943.286 926.5,953.5 Z"/></g>
<g><path style="opacity:0.999" fill="#76e885" d="M 1329.5,972.5 C 1329.17,979.833 1328.83,987.167 1328.5,994.5C 1326.8,1014.44 1316.14,1025.94 1296.5,1029C 1289.2,1029.8 1282.03,1029.3 1275,1027.5C 1272.55,1030.58 1271.05,1034.08 1270.5,1038C 1271.33,1041.6 1273.66,1043.6 1277.5,1044C 1290.91,1045.13 1304.25,1046.79 1317.5,1049C 1333,1055.15 1340.67,1066.65 1340.5,1083.5C 1341.19,1103.15 1332.02,1115.15 1313,1119.5C 1295.11,1121.76 1277.28,1121.26 1259.5,1118C 1243.32,1114.49 1237.16,1104.65 1241,1088.5C 1244.14,1077.69 1250.64,1069.52 1260.5,1064C 1247.2,1058.41 1243.7,1048.91 1250,1035.5C 1253.95,1030.56 1258.12,1025.9 1262.5,1021.5C 1253.04,1012.58 1247.87,1001.58 1247,988.5C 1245.53,974.537 1246.87,960.871 1251,947.5C 1257.85,930.844 1270.35,922.844 1288.5,923.5C 1301.67,922.92 1312,927.92 1319.5,938.5C 1326.16,931.175 1334.16,925.842 1343.5,922.5C 1346.12,928.204 1348.46,934.037 1350.5,940C 1350.09,940.945 1349.43,941.612 1348.5,942C 1340.48,944.181 1332.81,947.181 1325.5,951C 1328.31,957.867 1329.64,965.034 1329.5,972.5 Z M 1271.5,987.5 C 1271.06,976.731 1271.73,966.064 1273.5,955.5C 1276.64,945.758 1283.31,941.925 1293.5,944C 1300.87,946.862 1304.7,952.362 1305,960.5C 1306.14,973.951 1305.47,987.284 1303,1000.5C 1298.25,1008.33 1291.42,1010.83 1282.5,1008C 1277.3,1005.45 1274.13,1001.28 1273,995.5C 1272.43,992.832 1271.93,990.166 1271.5,987.5 Z M 1274.5,1067.5 C 1283.83,1068.26 1293.17,1069.09 1302.5,1070C 1316.08,1071.68 1320.58,1078.85 1316,1091.5C 1313.9,1094.47 1311.07,1096.3 1307.5,1097C 1296.84,1098.88 1286.18,1098.88 1275.5,1097C 1266.55,1096.05 1263.05,1091.22 1265,1082.5C 1267.17,1076.83 1270.34,1071.83 1274.5,1067.5 Z"/></g>
<g><path style="opacity:0.999" fill="#75e886" d="M 1577.5,952.5 C 1577.96,993.182 1578.96,1033.85 1580.5,1074.5C 1572.49,1074.67 1564.49,1074.5 1556.5,1074C 1554.85,1067.96 1553.69,1061.8 1553,1055.5C 1543,1076.72 1527.5,1082.22 1506.5,1072C 1492.41,1057.89 1488.91,1041.39 1496,1022.5C 1498.71,1015.58 1502.54,1009.41 1507.5,1004C 1520.77,994.585 1535.1,987.085 1550.5,981.5C 1551.75,972.812 1551.59,964.146 1550,955.5C 1547.09,946.46 1540.92,943.293 1531.5,946C 1526.66,947.819 1523.83,951.319 1523,956.5C 1521.87,962.112 1521.37,967.779 1521.5,973.5C 1512.17,973.078 1502.84,972.745 1493.5,972.5C 1493.67,936.494 1511.67,920.327 1547.5,924C 1564.85,925.85 1574.85,935.35 1577.5,952.5 Z M 1521.5,1038.5 C 1521.35,1033.79 1521.69,1029.12 1522.5,1024.5C 1529.26,1013.26 1538.76,1004.92 1551,999.5C 1551.67,1013.17 1551.67,1026.83 1551,1040.5C 1547.06,1046.97 1541.4,1050.97 1534,1052.5C 1526.4,1050.99 1522.23,1046.32 1521.5,1038.5 Z"/></g>
<g><path style="opacity:1" fill="#77e885" d="M 1684.5,953.5 C 1683.88,953.611 1683.38,953.944 1683,954.5C 1682.23,958.594 1682.57,962.594 1684,966.5C 1684.38,967.056 1684.88,967.389 1685.5,967.5C 1700.47,981.965 1715.3,996.631 1730,1011.5C 1740.49,1028.1 1741.16,1045.1 1732,1062.5C 1719.12,1075.6 1703.62,1080.1 1685.5,1076C 1665.33,1069.17 1655.33,1055.17 1655.5,1034C 1663.14,1031.67 1670.81,1029.51 1678.5,1027.5C 1678.94,1035.33 1681.11,1042.67 1685,1049.5C 1691.6,1056.04 1699.1,1057.21 1707.5,1053C 1713.05,1048.38 1714.89,1042.55 1713,1035.5C 1711.36,1030.21 1708.69,1025.55 1705,1021.5C 1694.78,1012.31 1684.28,1003.48 1673.5,995C 1660.3,983.4 1655.47,968.9 1659,951.5C 1664.15,932.539 1676.65,923.206 1696.5,923.5C 1715.29,923.451 1727.46,932.451 1733,950.5C 1733.88,954.504 1734.71,958.504 1735.5,962.5C 1729.36,965.548 1723.03,968.215 1716.5,970.5C 1714.9,963.191 1712.4,956.191 1709,949.5C 1699.33,941.952 1691.16,943.286 1684.5,953.5 Z"/></g>
<g><path style="opacity:0.997" fill="#75e885" d="M 527.5,1047.5 C 528.496,1047.59 529.329,1047.25 530,1046.5C 530.5,1006.17 530.667,965.835 530.5,925.5C 539.5,925.5 548.5,925.5 557.5,925.5C 557.5,975.167 557.5,1024.83 557.5,1074.5C 548.167,1074.5 538.833,1074.5 529.5,1074.5C 529.666,1070.15 529.499,1065.82 529,1061.5C 515.411,1075.16 499.578,1079.32 481.5,1074C 474.112,1067.18 470.612,1058.68 471,1048.5C 470.5,1007.5 470.333,966.501 470.5,925.5C 480.167,925.5 489.833,925.5 499.5,925.5C 499.333,965.501 499.5,1005.5 500,1045.5C 503.077,1053.98 508.91,1056.48 517.5,1053C 521.048,1051.4 524.382,1049.56 527.5,1047.5 Z"/></g>
<g><path style="opacity:0.997" fill="#7ae885" d="M 1192.5,925.5 C 1202.17,925.5 1211.83,925.5 1221.5,925.5C 1221.5,975.167 1221.5,1024.83 1221.5,1074.5C 1211.83,1074.5 1202.17,1074.5 1192.5,1074.5C 1192.5,1024.83 1192.5,975.167 1192.5,925.5 Z"/></g>
<g><path style="opacity:0.997" fill="#7ae885" d="M 1361.5,925.5 C 1371.17,925.5 1380.83,925.5 1390.5,925.5C 1390.5,975.167 1390.5,1024.83 1390.5,1074.5C 1380.83,1074.5 1371.17,1074.5 1361.5,1074.5C 1361.5,1024.83 1361.5,975.167 1361.5,925.5 Z"/></g>
<g><path style="opacity:0.997" fill="#7ae885" d="M 1605.5,925.5 C 1615.17,925.5 1624.83,925.5 1634.5,925.5C 1634.5,975.167 1634.5,1024.83 1634.5,1074.5C 1624.83,1074.5 1615.17,1074.5 1605.5,1074.5C 1605.5,1024.83 1605.5,975.167 1605.5,925.5 Z"/></g>
<g><path style="opacity:0.596" fill="#35e8cd" d="M 530.5,925.5 C 530.667,965.835 530.5,1006.17 530,1046.5C 529.329,1047.25 528.496,1047.59 527.5,1047.5C 527.783,1046.71 528.283,1046.04 529,1045.5C 529.167,1005.33 529.667,965.331 530.5,925.5 Z"/></g>
<g><path style="opacity:0.988" fill="#8ae852" d="M 1164.5,907.5 C 1165.31,909.292 1165.81,911.292 1166,913.5C 1166.67,950.167 1166.67,986.833 1166,1023.5C 1165.76,1027.43 1164.93,1031.1 1163.5,1034.5C 1163.92,1030.17 1164.42,1025.83 1165,1021.5C 1165.78,983.488 1165.62,945.488 1164.5,907.5 Z"/></g>
<g><path style="opacity:0.816" fill="#90e84f" d="M 1453.5,944.5 C 1453.2,979.187 1453.53,1013.85 1454.5,1048.5C 1453.71,1047.39 1453.21,1046.06 1453,1044.5C 1452.17,1011 1452.34,977.664 1453.5,944.5 Z"/></g>
<g><path style="opacity:0.678" fill="#b4e941" d="M 926.5,953.5 C 925.133,958.27 925.466,962.937 927.5,967.5C 926.883,967.389 926.383,967.056 926,966.5C 924.566,962.594 924.233,958.594 925,954.5C 925.383,953.944 925.883,953.611 926.5,953.5 Z"/></g>
<g><path style="opacity:0.678" fill="#b4e941" d="M 1684.5,953.5 C 1683.13,958.27 1683.47,962.937 1685.5,967.5C 1684.88,967.389 1684.38,967.056 1684,966.5C 1682.57,962.594 1682.23,958.594 1683,954.5C 1683.38,953.944 1683.88,953.611 1684.5,953.5 Z"/></g>
<g><path style="opacity:0.878" fill="#97e84f" d="M 1577.5,952.5 C 1578.3,953.952 1578.8,955.618 1579,957.5C 1579.33,986.833 1579.67,1016.17 1580,1045.5C 1580.3,1054.56 1581.13,1063.56 1582.5,1072.5C 1582.25,1073.71 1581.59,1074.38 1580.5,1074.5C 1578.96,1033.85 1577.96,993.182 1577.5,952.5 Z"/></g>
<g><path style="opacity:0.659" fill="#abe845" d="M 332.5,956.5 C 331.176,985.169 331.176,1013.84 332.5,1042.5C 331.732,1041.74 331.232,1040.74 331,1039.5C 330.333,1013.17 330.333,986.833 331,960.5C 331.21,958.942 331.71,957.609 332.5,956.5 Z"/></g>
<g><path style="opacity:0.659" fill="#abe845" d="M 715.5,956.5 C 714.176,985.169 714.176,1013.84 715.5,1042.5C 714.732,1041.74 714.232,1040.74 714,1039.5C 713.333,1013.17 713.333,986.833 714,960.5C 714.21,958.942 714.71,957.609 715.5,956.5 Z"/></g>
<g><path style="opacity:0.275" fill="#dae824" d="M 1273.5,955.5 C 1271.73,966.064 1271.06,976.731 1271.5,987.5C 1270.34,979.01 1270.18,970.343 1271,961.5C 1271.04,959.026 1271.87,957.026 1273.5,955.5 Z"/></g>
<g><path style="opacity:0.659" fill="#b0e842" d="M 610.5,958.5 C 609.186,985.837 609.186,1013.17 610.5,1040.5C 609.71,1039.39 609.21,1038.06 609,1036.5C 608.333,1012.17 608.333,987.833 609,963.5C 609.198,961.618 609.698,959.952 610.5,958.5 Z"/></g>
<g><path style="opacity:0.659" fill="#ade844" d="M 825.5,951.5 C 823.034,962.672 822.034,974.006 822.5,985.5C 820.997,974.561 821.497,963.561 824,952.5C 824.383,951.944 824.883,951.611 825.5,951.5 Z"/></g>
<g><path style="opacity:0.753" fill="#aae843" d="M 388.5,958.5 C 389.309,960.292 389.809,962.292 390,964.5C 390.83,988.337 390.663,1012 389.5,1035.5C 389.756,1009.82 389.422,984.152 388.5,958.5 Z"/></g>
<g><path style="opacity:0.753" fill="#aae843" d="M 771.5,958.5 C 772.309,960.292 772.809,962.292 773,964.5C 773.83,988.337 773.663,1012 772.5,1035.5C 772.756,1009.82 772.422,984.152 771.5,958.5 Z"/></g>
<g><path style="opacity:0.839" fill="#cce834" d="M 1329.5,972.5 C 1330.61,979.871 1330.28,987.204 1328.5,994.5C 1328.83,987.167 1329.17,979.833 1329.5,972.5 Z"/></g>
<g><path style="opacity:0.659" fill="#afe842" d="M 822.5,1001.5 C 822.32,1015.85 822.653,1030.18 823.5,1044.5C 821.958,1036.22 821.291,1027.72 821.5,1019C 821.479,1012.42 821.812,1006.59 822.5,1001.5 Z"/></g>
<g><path style="opacity:1" fill="#abe946" d="M 285.5,1014.5 C 287.96,1024.23 287.626,1033.9 284.5,1043.5C 285.36,1033.86 285.693,1024.19 285.5,1014.5 Z"/></g>
<g><path style="opacity:0.294" fill="#cee82a" d="M 1522.5,1024.5 C 1521.69,1029.12 1521.35,1033.79 1521.5,1038.5C 1520.84,1036.7 1520.5,1034.7 1520.5,1032.5C 1520.29,1029.47 1520.95,1026.81 1522.5,1024.5 Z"/></g>
<g><path style="opacity:0.455" fill="#d6e825" d="M 659.5,1107.5 C 660.16,1108.96 660.493,1110.63 660.5,1112.5C 660.618,1115.49 659.952,1118.15 658.5,1120.5C 659.2,1116.2 659.533,1111.87 659.5,1107.5 Z"/></g>
</svg>
