<?xml version="1.0" encoding="UTF-8"?>
<!DOCTYPE svg PUBLIC "-//W3C//DTD SVG 1.1//EN" "http://www.w3.org/Graphics/SVG/1.1/DTD/svg11.dtd">
<svg xmlns="http://www.w3.org/2000/svg" version="1.1" width="1920px" height="1280px" style="shape-rendering:geometricPrecision; text-rendering:geometricPrecision; image-rendering:optimizeQuality; fill-rule:evenodd; clip-rule:evenodd" xmlns:xlink="http://www.w3.org/1999/xlink">
<g><path style="opacity:0.999" fill="#637ef4" d="M 1741.5,125.5 C 1741.82,127.048 1742.82,127.715 1744.5,127.5C 1747.62,128.561 1750.62,129.895 1753.5,131.5C 1753.82,133.048 1754.82,133.715 1756.5,133.5C 1768.02,139.937 1778.02,148.271 1786.5,158.5C 1787.08,160.749 1788.41,162.415 1790.5,163.5C 1790.74,165.404 1791.74,166.738 1793.5,167.5C 1793.74,169.404 1794.74,170.738 1796.5,171.5C 1796.43,173.027 1797.09,174.027 1798.5,174.5C 1799.34,174.842 1799.67,175.508 1799.5,176.5C 1799.43,178.027 1800.09,179.027 1801.5,179.5C 1801.43,181.027 1802.09,182.027 1803.5,182.5C 1806.62,187.07 1808.95,192.07 1810.5,197.5C 1810.17,200.491 1811.17,202.824 1813.5,204.5C 1813.5,204.833 1813.5,205.167 1813.5,205.5C 1814.06,210.165 1815.39,214.498 1817.5,218.5C 1818.43,219.568 1818.77,220.901 1818.5,222.5C 1818.29,225.495 1818.96,228.162 1820.5,230.5C 1823.22,241.627 1824.55,252.96 1824.5,264.5C 1824.62,280.87 1823.96,297.203 1822.5,313.5C 1822.7,315.95 1822.37,318.283 1821.5,320.5C 1819.23,326.215 1817.57,332.215 1816.5,338.5C 1816.5,339.167 1816.5,339.833 1816.5,340.5C 1814.9,341.287 1814.23,342.62 1814.5,344.5C 1813.07,345.78 1812.4,347.447 1812.5,349.5C 1808.02,362.472 1801.02,373.806 1791.5,383.5C 1790.09,383.973 1789.43,384.973 1789.5,386.5C 1774.19,402.612 1755.85,414.112 1734.5,421C 1737.89,422.075 1741.23,423.242 1744.5,424.5C 1744.82,426.048 1745.82,426.715 1747.5,426.5C 1749.28,426.893 1750.95,427.559 1752.5,428.5C 1752.82,430.048 1753.82,430.715 1755.5,430.5C 1765.81,435.82 1774.81,442.82 1782.5,451.5C 1783.08,453.749 1784.41,455.415 1786.5,456.5C 1787.5,456.833 1788.17,457.5 1788.5,458.5C 1788.74,460.404 1789.74,461.738 1791.5,462.5C 1791.43,464.027 1792.09,465.027 1793.5,465.5C 1793.74,467.404 1794.74,468.738 1796.5,469.5C 1796.43,471.027 1797.09,472.027 1798.5,472.5C 1799.34,472.842 1799.67,473.508 1799.5,474.5C 1799.43,476.027 1800.09,477.027 1801.5,477.5C 1806.22,484.953 1809.89,492.953 1812.5,501.5C 1813.06,506.165 1814.39,510.498 1816.5,514.5C 1821.76,531.646 1824.43,549.313 1824.5,567.5C 1824.33,583.838 1824,600.171 1823.5,616.5C 1823.53,620.869 1823.2,625.202 1822.5,629.5C 1821.78,629.918 1821.28,630.584 1821,631.5C 1820.17,636.137 1819.67,640.804 1819.5,645.5C 1819.5,646.167 1819.5,646.833 1819.5,647.5C 1816.41,655.508 1814.08,663.841 1812.5,672.5C 1812.74,673.791 1812.4,674.791 1811.5,675.5C 1809.93,677.102 1809.26,679.102 1809.5,681.5C 1809.67,682.492 1809.34,683.158 1808.5,683.5C 1807.07,684.78 1806.4,686.447 1806.5,688.5C 1790.81,728.854 1762.15,754.854 1720.5,766.5C 1715.62,766.791 1711.29,768.124 1707.5,770.5C 1568.36,787.557 1501.03,725.891 1505.5,585.5C 1534.17,585.5 1562.83,585.5 1591.5,585.5C 1591.25,598.197 1591.58,610.863 1592.5,623.5C 1592.32,627.122 1592.99,630.456 1594.5,633.5C 1595.83,640.161 1597.17,646.828 1598.5,653.5C 1598.12,655.698 1598.79,657.365 1600.5,658.5C 1602.77,663.383 1604.77,668.383 1606.5,673.5C 1606.43,675.027 1607.09,676.027 1608.5,676.5C 1609.34,676.842 1609.67,677.508 1609.5,678.5C 1609.74,680.404 1610.74,681.738 1612.5,682.5C 1616.59,686.929 1621.26,690.596 1626.5,693.5C 1626.82,695.048 1627.82,695.715 1629.5,695.5C 1651.29,704.125 1673.29,704.625 1695.5,697C 1711.15,690.018 1721.98,678.518 1728,662.5C 1734.31,643.691 1737.64,624.358 1738,604.5C 1740.87,572.563 1736.87,541.563 1726,511.5C 1713.48,483.657 1691.98,468.157 1661.5,465C 1654.84,464.289 1648.18,463.789 1641.5,463.5C 1641.5,434.833 1641.5,406.167 1641.5,377.5C 1658.53,378.031 1675.19,375.864 1691.5,371C 1713.7,363.468 1727.53,348.301 1733,325.5C 1739.93,295.585 1740.26,265.585 1734,235.5C 1728.51,205.342 1710.68,188.175 1680.5,184C 1664.09,182.115 1648.09,183.781 1632.5,189C 1625.15,192.677 1618.65,197.511 1613,203.5C 1608.87,210.097 1605.04,216.764 1601.5,223.5C 1596.85,233.555 1594.01,244.222 1593,255.5C 1591.72,270.471 1591.22,285.471 1591.5,300.5C 1562.83,300.5 1534.17,300.5 1505.5,300.5C 1503.35,266.666 1507.52,233.666 1518,201.5C 1536.12,155.719 1569.29,127.552 1617.5,117C 1652.65,110.461 1687.65,111.127 1722.5,119C 1728.89,121.076 1735.23,123.242 1741.5,125.5 Z"/></g>
<g><path style="opacity:1" fill="#667ef2" d="M 1278.5,241.5 C 1273.26,241.882 1268.26,242.882 1263.5,244.5C 1246.72,248.322 1229.72,251.656 1212.5,254.5C 1212.5,232.5 1212.5,210.5 1212.5,188.5C 1243.18,181.329 1272.51,170.496 1300.5,156C 1317.75,146.584 1332.75,134.418 1345.5,119.5C 1367.82,118.5 1390.16,118.167 1412.5,118.5C 1412.5,334.5 1412.5,550.5 1412.5,766.5C 1383.5,766.5 1354.5,766.5 1325.5,766.5C 1325.83,588.165 1325.5,409.832 1324.5,231.5C 1309.36,235.729 1294.02,239.062 1278.5,241.5 Z"/></g>
<g><path style="opacity:0.902" fill="#bf7f85" d="M 1741.5,125.5 C 1742.71,125.932 1743.71,126.599 1744.5,127.5C 1742.82,127.715 1741.82,127.048 1741.5,125.5 Z"/></g>
<g><path style="opacity:1" fill="#fefffe" d="M 292.5,138.5 C 296.895,140.435 301.562,141.769 306.5,142.5C 325.46,148.309 341.46,158.643 354.5,173.5C 355.419,176.089 357.086,178.089 359.5,179.5C 361.984,181.8 363.984,184.467 365.5,187.5C 365.427,189.027 366.094,190.027 367.5,190.5C 368.338,190.842 368.672,191.508 368.5,192.5C 368.427,194.027 369.094,195.027 370.5,195.5C 371.338,195.842 371.672,196.508 371.5,197.5C 371.427,199.027 372.094,200.027 373.5,200.5C 376.257,204.416 378.257,208.75 379.5,213.5C 379.166,216.491 380.166,218.824 382.5,220.5C 382.5,220.833 382.5,221.167 382.5,221.5C 383.256,225.767 384.589,229.767 386.5,233.5C 389.264,246.341 392.264,259.008 395.5,271.5C 395.5,272.167 395.5,272.833 395.5,273.5C 395.45,279.389 396.116,285.056 397.5,290.5C 398.807,292.223 398.807,294.057 397.5,296C 373.272,302.973 348.938,309.473 324.5,315.5C 324.389,294.831 321.055,274.831 314.5,255.5C 312.399,252.203 311.065,248.537 310.5,244.5C 309.54,239.914 307.54,235.914 304.5,232.5C 302.179,229.204 299.846,225.871 297.5,222.5C 295.833,218.833 293.167,216.167 289.5,214.5C 273.2,203.427 255.2,199.26 235.5,202C 215.908,203.301 199.241,210.801 185.5,224.5C 184.094,224.973 183.427,225.973 183.5,227.5C 182.737,229.368 181.737,231.035 180.5,232.5C 179.094,232.973 178.427,233.973 178.5,235.5C 177.069,236.78 176.402,238.447 176.5,240.5C 174.738,243.503 173.572,246.837 173,250.5C 171.478,261.79 171.144,273.123 172,284.5C 172.486,290.111 173.653,295.444 175.5,300.5C 175.345,303.716 176.345,306.383 178.5,308.5C 180.438,312.043 182.105,315.71 183.5,319.5C 183.427,321.027 184.094,322.027 185.5,322.5C 186.338,322.842 186.672,323.508 186.5,324.5C 186.738,326.404 187.738,327.738 189.5,328.5C 189.427,330.027 190.094,331.027 191.5,331.5C 192.08,333.749 193.413,335.415 195.5,336.5C 196.5,336.833 197.167,337.5 197.5,338.5C 201.5,344.5 206.5,349.5 212.5,353.5C 214.5,355.167 216.5,356.833 218.5,358.5C 218.5,360.5 219.5,361.5 221.5,361.5C 223.167,362.5 224.5,363.833 225.5,365.5C 226.262,367.262 227.596,368.262 229.5,368.5C 231.5,370.167 233.5,371.833 235.5,373.5C 235.5,375.5 236.5,376.5 238.5,376.5C 240.167,377.5 241.5,378.833 242.5,380.5C 243.262,382.262 244.596,383.262 246.5,383.5C 248.5,385.167 250.5,386.833 252.5,388.5C 252.5,390.5 253.5,391.5 255.5,391.5C 257.167,392.5 258.5,393.833 259.5,395.5C 260.262,397.262 261.596,398.262 263.5,398.5C 265.5,400.167 267.5,401.833 269.5,403.5C 269.5,405.5 270.5,406.5 272.5,406.5C 274.167,407.5 275.5,408.833 276.5,410.5C 277.262,412.262 278.596,413.262 280.5,413.5C 282.5,415.167 284.5,416.833 286.5,418.5C 286.5,420.5 287.5,421.5 289.5,421.5C 291.167,422.5 292.5,423.833 293.5,425.5C 294.262,427.262 295.596,428.262 297.5,428.5C 299.167,429.5 300.5,430.833 301.5,432.5C 302.262,434.262 303.596,435.262 305.5,435.5C 307.5,437.167 309.5,438.833 311.5,440.5C 311.5,442.5 312.5,443.5 314.5,443.5C 316.5,445.167 318.5,446.833 320.5,448.5C 320.833,450.833 322.167,452.167 324.5,452.5C 329.5,456.833 334.167,461.5 338.5,466.5C 340.43,470.1 343.097,473.1 346.5,475.5C 347.5,475.833 348.167,476.5 348.5,477.5C 349.419,480.089 351.086,482.089 353.5,483.5C 354.08,485.749 355.413,487.415 357.5,488.5C 358.08,490.749 359.413,492.415 361.5,493.5C 362.08,495.749 363.413,497.415 365.5,498.5C 367.547,500.55 369.214,502.883 370.5,505.5C 370.427,507.027 371.094,508.027 372.5,508.5C 372.427,510.027 373.094,511.027 374.5,511.5C 374.427,513.027 375.094,514.027 376.5,514.5C 376.427,516.027 377.094,517.027 378.5,517.5C 378.427,519.027 379.094,520.027 380.5,520.5C 381.338,520.842 381.672,521.508 381.5,522.5C 381.427,524.027 382.094,525.027 383.5,525.5C 385.008,527.181 386.008,529.181 386.5,531.5C 386.427,533.027 387.094,534.027 388.5,534.5C 390.204,537.256 391.537,540.256 392.5,543.5C 392.166,546.491 393.166,548.824 395.5,550.5C 396.738,552.214 397.405,554.214 397.5,556.5C 398.057,561.165 399.39,565.498 401.5,569.5C 402.434,570.568 402.768,571.901 402.5,573.5C 402.882,578.744 403.882,583.744 405.5,588.5C 407.135,605.454 407.802,622.454 407.5,639.5C 407.5,640.5 407.5,641.5 407.5,642.5C 405.076,656.6 401.742,670.6 397.5,684.5C 396.069,685.78 395.402,687.447 395.5,689.5C 393.375,692.088 392.042,695.088 391.5,698.5C 390.094,698.973 389.427,699.973 389.5,701.5C 389.34,703.153 388.674,704.486 387.5,705.5C 386.094,705.973 385.427,706.973 385.5,708.5C 384.094,708.973 383.427,709.973 383.5,711.5C 382.094,711.973 381.427,712.973 381.5,714.5C 381.5,715.167 381.167,715.5 380.5,715.5C 379.094,715.973 378.427,716.973 378.5,718.5C 378.167,719.5 377.5,720.167 376.5,720.5C 375.094,720.973 374.427,721.973 374.5,723.5C 370.5,728.167 366.167,732.5 361.5,736.5C 359.973,736.427 358.973,737.094 358.5,738.5C 339.54,754.807 317.54,764.974 292.5,769C 254.648,775.387 217.981,771.387 182.5,757C 155.492,743.659 134.659,723.826 120,697.5C 112.814,684.469 107.314,670.803 103.5,656.5C 98.3851,636.644 95.0518,616.477 93.5,596C 93.5552,593.413 93.8885,590.913 94.5,588.5C 119.378,581.43 144.378,574.764 169.5,568.5C 170.011,582.117 171.678,595.451 174.5,608.5C 174.934,616.225 176.6,623.559 179.5,630.5C 179.528,633.916 180.528,636.916 182.5,639.5C 182.345,642.716 183.345,645.383 185.5,647.5C 188.403,652.977 191.07,658.643 193.5,664.5C 193.427,666.027 194.094,667.027 195.5,667.5C 196.338,667.842 196.672,668.508 196.5,669.5C 196.738,671.404 197.738,672.738 199.5,673.5C 218.967,697.161 243.967,706.328 274.5,701C 299.397,696.597 315.73,682.431 323.5,658.5C 325.474,653.818 326.641,648.818 327,643.5C 328.526,626.256 327.193,609.256 323,592.5C 321.962,588.532 320.462,584.865 318.5,581.5C 310.763,566.759 301.43,553.093 290.5,540.5C 283.426,531.922 275.76,523.755 267.5,516C 266.906,515.536 266.239,515.369 265.5,515.5C 226.51,481.175 187.843,446.509 149.5,411.5C 147.167,408.5 144.5,405.833 141.5,403.5C 121.173,384.194 107.506,360.861 100.5,333.5C 95.4938,309.43 93.4938,285.097 94.5,260.5C 95.8063,255.384 96.473,250.051 96.5,244.5C 98.9661,235.639 101.299,226.639 103.5,217.5C 118.869,177.638 147.203,151.805 188.5,140C 223.225,131.123 257.891,130.623 292.5,138.5 Z"/></g>
<g><path style="opacity:0.902" fill="#c0797a" d="M 1753.5,131.5 C 1754.71,131.932 1755.71,132.599 1756.5,133.5C 1754.82,133.715 1753.82,133.048 1753.5,131.5 Z"/></g>
<g><path style="opacity:0.753" fill="#fffeb7" d="M 292.5,138.5 C 297.529,138.92 302.195,140.254 306.5,142.5C 301.562,141.769 296.895,140.435 292.5,138.5 Z"/></g>
<g><path style="opacity:0.867" fill="#c37760" d="M 1786.5,158.5 C 1788.59,159.585 1789.92,161.251 1790.5,163.5C 1788.41,162.415 1787.08,160.749 1786.5,158.5 Z"/></g>
<g><path style="opacity:0.922" fill="#b97f6e" d="M 1790.5,163.5 C 1792.26,164.262 1793.26,165.596 1793.5,167.5C 1791.74,166.738 1790.74,165.404 1790.5,163.5 Z"/></g>
<g><path style="opacity:0.997" fill="#fefefb" d="M 473.5,165.5 C 501.5,165.5 529.5,165.5 557.5,165.5C 557.5,194.5 557.5,223.5 557.5,252.5C 529.5,252.5 501.5,252.5 473.5,252.5C 473.5,223.5 473.5,194.5 473.5,165.5 Z"/></g>
<g><path style="opacity:0.945" fill="#b3796e" d="M 1793.5,167.5 C 1795.26,168.262 1796.26,169.596 1796.5,171.5C 1794.74,170.738 1793.74,169.404 1793.5,167.5 Z"/></g>
<g><path style="opacity:0.514" fill="#bc7b57" d="M 1796.5,171.5 C 1797.91,171.973 1798.57,172.973 1798.5,174.5C 1797.09,174.027 1796.43,173.027 1796.5,171.5 Z"/></g>
<g><path style="opacity:0.957" fill="#fffe7f" d="M 354.5,173.5 C 356.914,174.911 358.581,176.911 359.5,179.5C 357.086,178.089 355.419,176.089 354.5,173.5 Z"/></g>
<g><path style="opacity:0.6" fill="#ae7e66" d="M 1799.5,176.5 C 1800.91,176.973 1801.57,177.973 1801.5,179.5C 1800.09,179.027 1799.43,178.027 1799.5,176.5 Z"/></g>
<g><path style="opacity:0.345" fill="#cb7240" d="M 1801.5,179.5 C 1802.91,179.973 1803.57,180.973 1803.5,182.5C 1802.09,182.027 1801.43,181.027 1801.5,179.5 Z"/></g>
<g><path style="opacity:0.997" fill="#fefffe" d="M 748.5,373.5 C 747.334,472.666 747.168,571.999 748,671.5C 748.524,676.594 749.524,681.594 751,686.5C 751.2,688.32 752.034,689.653 753.5,690.5C 754.674,691.514 755.34,692.847 755.5,694.5C 756.167,697.167 757.833,698.833 760.5,699.5C 765.911,703.138 771.911,705.305 778.5,706C 791.916,706.942 805.25,706.442 818.5,704.5C 819.826,725.398 819.826,746.232 818.5,767C 792.595,771.042 766.595,772.042 740.5,770C 708.573,767.2 686.906,751.034 675.5,721.5C 670.951,708.211 668.118,694.545 667,680.5C 666.833,577.999 666.333,475.666 665.5,373.5C 649.833,373.5 634.167,373.5 618.5,373.5C 618.5,354.833 618.5,336.167 618.5,317.5C 634.167,317.5 649.833,317.5 665.5,317.5C 665.5,274.167 665.5,230.833 665.5,187.5C 693.167,187.5 720.833,187.5 748.5,187.5C 748.5,230.833 748.5,274.167 748.5,317.5C 772.5,317.5 796.5,317.5 820.5,317.5C 820.5,336.167 820.5,354.833 820.5,373.5C 796.5,373.5 772.5,373.5 748.5,373.5 Z"/></g>
<g><path style="opacity:0.467" fill="#fffe5a" d="M 365.5,187.5 C 366.906,187.973 367.573,188.973 367.5,190.5C 366.094,190.027 365.427,189.027 365.5,187.5 Z"/></g>
<g><path style="opacity:0.573" fill="#fffe6c" d="M 368.5,192.5 C 369.906,192.973 370.573,193.973 370.5,195.5C 369.094,195.027 368.427,194.027 368.5,192.5 Z"/></g>
<g><path style="opacity:0.357" fill="#fffe4c" d="M 371.5,197.5 C 372.906,197.973 373.573,198.973 373.5,200.5C 372.094,200.027 371.427,199.027 371.5,197.5 Z"/></g>
<g><path style="opacity:1" fill="#ae7c7a" d="M 1810.5,197.5 C 1812.07,199.509 1813.07,201.843 1813.5,204.5C 1811.17,202.824 1810.17,200.491 1810.5,197.5 Z"/></g>
<g><path style="opacity:1" fill="#a47f79" d="M 1813.5,205.5 C 1815.61,209.502 1816.94,213.835 1817.5,218.5C 1815.39,214.498 1814.06,210.165 1813.5,205.5 Z"/></g>
<g><path style="opacity:0.976" fill="#8ffffe" d="M 289.5,214.5 C 293.167,216.167 295.833,218.833 297.5,222.5C 294.5,220.167 291.833,217.5 289.5,214.5 Z"/></g>
<g><path style="opacity:1" fill="#fffe83" d="M 379.5,213.5 C 381.065,215.509 382.065,217.843 382.5,220.5C 380.166,218.824 379.166,216.491 379.5,213.5 Z"/></g>
<g><path style="opacity:0.988" fill="#7ffffe" d="M 103.5,217.5 C 101.299,226.639 98.9661,235.639 96.5,244.5C 97.4473,235.041 99.7806,226.041 103.5,217.5 Z"/></g>
<g><path style="opacity:0.024" fill="#fffe51" d="M 185.5,224.5 C 185.573,226.027 184.906,227.027 183.5,227.5C 183.427,225.973 184.094,224.973 185.5,224.5 Z"/></g>
<g><path style="opacity:0.925" fill="#fffe7a" d="M 382.5,221.5 C 384.806,225.085 386.139,229.085 386.5,233.5C 384.589,229.767 383.256,225.767 382.5,221.5 Z"/></g>
<g><path style="opacity:0.655" fill="#c37f53" d="M 1601.5,223.5 C 1597.79,234.543 1595.29,245.877 1594,257.5C 1593.06,271.984 1592.23,286.317 1591.5,300.5C 1591.22,285.471 1591.72,270.471 1593,255.5C 1594.01,244.222 1596.85,233.555 1601.5,223.5 Z"/></g>
<g><path style="opacity:0.714" fill="#a87f65" d="M 1818.5,222.5 C 1819.77,224.905 1820.43,227.572 1820.5,230.5C 1818.96,228.162 1818.29,225.495 1818.5,222.5 Z"/></g>
<g><path style="opacity:0.294" fill="#fffe48" d="M 180.5,232.5 C 180.573,234.027 179.906,235.027 178.5,235.5C 178.427,233.973 179.094,232.973 180.5,232.5 Z"/></g>
<g><path style="opacity:0.996" fill="#fffe6a" d="M 386.5,233.5 C 390.755,245.752 393.755,258.419 395.5,271.5C 392.264,259.008 389.264,246.341 386.5,233.5 Z"/></g>
<g><path style="opacity:0.529" fill="#fffe60" d="M 178.5,235.5 C 178.598,237.553 177.931,239.22 176.5,240.5C 176.402,238.447 177.069,236.78 178.5,235.5 Z"/></g>
<g><path style="opacity:0.443" fill="#6afffe" d="M 304.5,232.5 C 307.54,235.914 309.54,239.914 310.5,244.5C 307.992,240.818 305.992,236.818 304.5,232.5 Z"/></g>
<g><path style="opacity:0.769" fill="#937cb5" d="M 1278.5,241.5 C 1273.79,243.375 1268.79,244.375 1263.5,244.5C 1268.26,242.882 1273.26,241.882 1278.5,241.5 Z"/></g>
<g><path style="opacity:0.773" fill="#fffe67" d="M 176.5,240.5 C 171.504,260.397 171.171,280.397 175.5,300.5C 173.653,295.444 172.486,290.111 172,284.5C 171.144,273.123 171.478,261.79 173,250.5C 173.572,246.837 174.738,243.503 176.5,240.5 Z"/></g>
<g><path style="opacity:0.714" fill="#77fffe" d="M 96.5,244.5 C 96.473,250.051 95.8063,255.384 94.5,260.5C 94.2549,254.916 94.9216,249.583 96.5,244.5 Z"/></g>
<g><path style="opacity:0.435" fill="#6afffe" d="M 314.5,255.5 C 321.055,274.831 324.389,294.831 324.5,315.5C 322.762,295.357 319.429,275.357 314.5,255.5 Z"/></g>
<g><path style="opacity:0.91" fill="#fffe71" d="M 395.5,273.5 C 396.884,278.944 397.55,284.611 397.5,290.5C 396.116,285.056 395.45,279.389 395.5,273.5 Z"/></g>
<g><path style="opacity:0.886" fill="#b57f58" d="M 1824.5,264.5 C 1826.04,280.909 1825.37,297.242 1822.5,313.5C 1823.96,297.203 1824.62,280.87 1824.5,264.5 Z"/></g>
<g><path style="opacity:0.992" fill="#fffe7b" d="M 175.5,300.5 C 176.871,302.936 177.871,305.603 178.5,308.5C 176.345,306.383 175.345,303.716 175.5,300.5 Z"/></g>
<g><path style="opacity:0.157" fill="#6bfffe" d="M 94.5,260.5 C 93.4938,285.097 95.4938,309.43 100.5,333.5C 96.9091,321.9 94.7424,309.9 94,297.5C 93.1735,284.993 93.3401,272.66 94.5,260.5 Z"/></g>
<g><path style="opacity:0.997" fill="#fefffe" d="M 1092.5,340.5 C 1093.42,343.089 1095.09,345.089 1097.5,346.5C 1100.6,349.275 1102.94,352.608 1104.5,356.5C 1104.43,358.027 1105.09,359.027 1106.5,359.5C 1107.34,359.842 1107.67,360.508 1107.5,361.5C 1107.43,363.027 1108.09,364.027 1109.5,364.5C 1111.95,367.74 1113.62,371.407 1114.5,375.5C 1115.92,381.767 1117.92,387.767 1120.5,393.5C 1121.43,394.568 1121.77,395.901 1121.5,397.5C 1122.68,406.388 1124.35,415.055 1126.5,423.5C 1126.5,424.167 1126.5,424.833 1126.5,425.5C 1126.79,434.72 1127.79,443.72 1129.5,452.5C 1129.5,454.167 1129.5,455.833 1129.5,457.5C 1129.5,486.167 1129.5,514.833 1129.5,543.5C 1071.5,543.5 1013.5,543.5 955.5,543.5C 955.44,542.957 955.107,542.624 954.5,542.5C 953.17,572.997 953.17,603.331 954.5,633.5C 954.56,645.552 955.393,657.552 957,669.5C 957.302,673.245 958.469,676.578 960.5,679.5C 962.065,681.509 963.065,683.843 963.5,686.5C 963.427,688.027 964.094,689.027 965.5,689.5C 966.338,689.842 966.672,690.508 966.5,691.5C 966.427,693.027 967.094,694.027 968.5,694.5C 968.427,696.027 969.094,697.027 970.5,697.5C 981.566,707.356 994.566,711.189 1009.5,709C 1024.42,707.879 1035.08,700.713 1041.5,687.5C 1043.25,685.239 1044.42,682.572 1045,679.5C 1046.85,672.259 1048.18,664.926 1049,657.5C 1049.5,641.17 1049.67,624.837 1049.5,608.5C 1076.17,608.5 1102.83,608.5 1129.5,608.5C 1130.57,637.627 1127.57,666.294 1120.5,694.5C 1120.74,695.791 1120.4,696.791 1119.5,697.5C 1117.73,699.792 1116.73,702.458 1116.5,705.5C 1116.67,706.492 1116.34,707.158 1115.5,707.5C 1113.33,710.515 1111.66,713.849 1110.5,717.5C 1109.92,720.331 1108.59,722.664 1106.5,724.5C 1105.09,724.973 1104.43,725.973 1104.5,727.5C 1104.5,728.167 1104.17,728.5 1103.5,728.5C 1102.09,728.973 1101.43,729.973 1101.5,731.5C 1101.17,732.5 1100.5,733.167 1099.5,733.5C 1098.09,733.973 1097.43,734.973 1097.5,736.5C 1078.59,756.452 1055.26,767.619 1027.5,770C 996.668,773.784 966.668,770.45 937.5,760C 908.936,746.081 890.936,723.581 883.5,692.5C 876.777,665.608 873.277,638.275 873,610.5C 872.251,556.827 872.417,503.161 873.5,449.5C 874.696,443.03 875.362,436.363 875.5,429.5C 875.438,424.924 876.105,420.591 877.5,416.5C 879.434,410.751 880.767,404.751 881.5,398.5C 882.998,390.337 885.664,382.67 889.5,375.5C 892.008,371.818 894.008,367.818 895.5,363.5C 897.596,357.631 900.929,352.631 905.5,348.5C 909.833,344.833 913.833,340.833 917.5,336.5C 927.647,327.756 939.314,321.589 952.5,318C 987.27,309.031 1021.94,309.365 1056.5,319C 1070.44,323.15 1082.44,330.316 1092.5,340.5 Z M 1041.5,395.5 C 1045.01,407.236 1047.18,419.236 1048,431.5C 1048.5,453.497 1048.67,475.497 1048.5,497.5C 1017.5,497.5 986.5,497.5 955.5,497.5C 954.918,471.778 955.751,446.111 958,420.5C 959.263,412.017 961.096,403.684 963.5,395.5C 971.753,380.196 984.753,372.863 1002.5,373.5C 1020.26,372.868 1033.26,380.201 1041.5,395.5 Z"/></g>
<g><path style="opacity:0.998" fill="#fefffd" d="M 473.5,317.5 C 501.167,317.5 528.833,317.5 556.5,317.5C 556.5,466.5 556.5,615.5 556.5,764.5C 528.833,764.5 501.167,764.5 473.5,764.5C 473.5,615.5 473.5,466.5 473.5,317.5 Z"/></g>
<g><path style="opacity:0.424" fill="#fffe55" d="M 183.5,319.5 C 184.906,319.973 185.573,320.973 185.5,322.5C 184.094,322.027 183.427,321.027 183.5,319.5 Z"/></g>
<g><path style="opacity:0.929" fill="#b17f67" d="M 1821.5,320.5 C 1820.75,326.859 1819.08,332.859 1816.5,338.5C 1817.57,332.215 1819.23,326.215 1821.5,320.5 Z"/></g>
<g><path style="opacity:0.725" fill="#fffe70" d="M 186.5,324.5 C 188.262,325.262 189.262,326.596 189.5,328.5C 187.738,327.738 186.738,326.404 186.5,324.5 Z"/></g>
<g><path style="opacity:0.647" fill="#fffe6e" d="M 189.5,328.5 C 190.906,328.973 191.573,329.973 191.5,331.5C 190.094,331.027 189.427,330.027 189.5,328.5 Z"/></g>
<g><path style="opacity:0.773" fill="#fffe7e" d="M 191.5,331.5 C 193.587,332.585 194.92,334.251 195.5,336.5C 193.413,335.415 192.08,333.749 191.5,331.5 Z"/></g>
<g><path style="opacity:0.933" fill="#fffe6f" d="M 197.5,338.5 C 202.833,343.167 207.833,348.167 212.5,353.5C 206.5,349.5 201.5,344.5 197.5,338.5 Z"/></g>
<g><path style="opacity:0.945" fill="#fffe80" d="M 1092.5,340.5 C 1094.91,341.911 1096.58,343.911 1097.5,346.5C 1095.09,345.089 1093.42,343.089 1092.5,340.5 Z"/></g>
<g><path style="opacity:0.537" fill="#c97349" d="M 1816.5,340.5 C 1816.34,342.153 1815.67,343.486 1814.5,344.5C 1814.23,342.62 1814.9,341.287 1816.5,340.5 Z"/></g>
<g><path style="opacity:0.871" fill="#93fffe" d="M 917.5,336.5 C 913.833,340.833 909.833,344.833 905.5,348.5C 908.5,343.5 912.5,339.5 917.5,336.5 Z"/></g>
<g><path style="opacity:0.647" fill="#af7e65" d="M 1814.5,344.5 C 1814.6,346.553 1813.93,348.22 1812.5,349.5C 1812.4,347.447 1813.07,345.78 1814.5,344.5 Z"/></g>
<g><path style="opacity:0.51" fill="#fffe63" d="M 1104.5,356.5 C 1105.91,356.973 1106.57,357.973 1106.5,359.5C 1105.09,359.027 1104.43,358.027 1104.5,356.5 Z"/></g>
<g><path style="opacity:0.729" fill="#fffe6d" d="M 218.5,358.5 C 219.833,359.167 220.833,360.167 221.5,361.5C 219.5,361.5 218.5,360.5 218.5,358.5 Z"/></g>
<g><path style="opacity:0.404" fill="#fffe53" d="M 1107.5,361.5 C 1108.91,361.973 1109.57,362.973 1109.5,364.5C 1108.09,364.027 1107.43,363.027 1107.5,361.5 Z"/></g>
<g><path style="opacity:0.008" fill="#fffe5a" d="M 225.5,365.5 C 227.404,365.738 228.738,366.738 229.5,368.5C 227.596,368.262 226.262,367.262 225.5,365.5 Z"/></g>
<g><path style="opacity:0.376" fill="#60fffe" d="M 895.5,363.5 C 894.008,367.818 892.008,371.818 889.5,375.5C 890.46,370.914 892.46,366.914 895.5,363.5 Z"/></g>
<g><path style="opacity:0.925" fill="#9dfffe" d="M 665.5,373.5 C 666.333,475.666 666.833,577.999 667,680.5C 668.118,694.545 670.951,708.211 675.5,721.5C 670.009,709.199 666.842,696.199 666,682.5C 665.5,579.501 665.333,476.501 665.5,373.5 Z"/></g>
<g><path style="opacity:0.643" fill="#fffe7c" d="M 748.5,373.5 C 748.333,471.834 748.5,570.167 749,668.5C 749.553,676.043 751.053,683.376 753.5,690.5C 752.034,689.653 751.2,688.32 751,686.5C 749.524,681.594 748.524,676.594 748,671.5C 747.168,571.999 747.334,472.666 748.5,373.5 Z"/></g>
<g><path style="opacity:0.729" fill="#fffe6e" d="M 235.5,373.5 C 236.833,374.167 237.833,375.167 238.5,376.5C 236.5,376.5 235.5,375.5 235.5,373.5 Z"/></g>
<g><path style="opacity:1" fill="#fffe89" d="M 1114.5,375.5 C 1117.47,381.085 1119.47,387.085 1120.5,393.5C 1117.92,387.767 1115.92,381.767 1114.5,375.5 Z"/></g>
<g><path style="opacity:0.008" fill="#fffe5b" d="M 242.5,380.5 C 244.404,380.738 245.738,381.738 246.5,383.5C 244.596,383.262 243.262,382.262 242.5,380.5 Z"/></g>
<g><path style="opacity:0.008" fill="#d58142" d="M 1791.5,383.5 C 1791.57,385.027 1790.91,386.027 1789.5,386.5C 1789.43,384.973 1790.09,383.973 1791.5,383.5 Z"/></g>
<g><path style="opacity:0.733" fill="#fffe6e" d="M 252.5,388.5 C 253.833,389.167 254.833,390.167 255.5,391.5C 253.5,391.5 252.5,390.5 252.5,388.5 Z"/></g>
<g><path style="opacity:0.008" fill="#fffe5b" d="M 259.5,395.5 C 261.404,395.738 262.738,396.738 263.5,398.5C 261.596,398.262 260.262,397.262 259.5,395.5 Z"/></g>
<g><path style="opacity:0.604" fill="#fffe5a" d="M 963.5,395.5 C 961.096,403.684 959.263,412.017 958,420.5C 955.751,446.111 954.918,471.778 955.5,497.5C 954.338,477.671 954.171,457.671 955,437.5C 955.59,429.117 956.59,420.783 958,412.5C 958.779,406.376 960.612,400.709 963.5,395.5 Z"/></g>
<g><path style="opacity:0.851" fill="#fffe70" d="M 1121.5,397.5 C 1124.17,405.852 1125.84,414.518 1126.5,423.5C 1124.35,415.055 1122.68,406.388 1121.5,397.5 Z"/></g>
<g><path style="opacity:0.922" fill="#77fffe" d="M 881.5,398.5 C 880.767,404.751 879.434,410.751 877.5,416.5C 877.916,410.182 879.249,404.182 881.5,398.5 Z"/></g>
<g><path style="opacity:0.004" fill="#5cfffe" d="M 141.5,403.5 C 144.5,405.833 147.167,408.5 149.5,411.5C 145.833,409.833 143.167,407.167 141.5,403.5 Z"/></g>
<g><path style="opacity:0.737" fill="#fffe6f" d="M 269.5,403.5 C 270.833,404.167 271.833,405.167 272.5,406.5C 270.5,406.5 269.5,405.5 269.5,403.5 Z"/></g>
<g><path style="opacity:0.008" fill="#fffe5c" d="M 276.5,410.5 C 278.404,410.738 279.738,411.738 280.5,413.5C 278.596,413.262 277.262,412.262 276.5,410.5 Z"/></g>
<g><path style="opacity:0.51" fill="#5afffe" d="M 1041.5,395.5 C 1043.13,397.858 1044.3,400.524 1045,403.5C 1046.77,411.428 1048.1,419.428 1049,427.5C 1049.83,451.004 1049.66,474.337 1048.5,497.5C 1048.67,475.497 1048.5,453.497 1048,431.5C 1047.18,419.236 1045.01,407.236 1041.5,395.5 Z"/></g>
<g><path style="opacity:0.741" fill="#fffe6e" d="M 286.5,418.5 C 287.833,419.167 288.833,420.167 289.5,421.5C 287.5,421.5 286.5,420.5 286.5,418.5 Z"/></g>
<g><path style="opacity:0.012" fill="#fffe5c" d="M 293.5,425.5 C 295.404,425.738 296.738,426.738 297.5,428.5C 295.596,428.262 294.262,427.262 293.5,425.5 Z"/></g>
<g><path style="opacity:0.863" fill="#bf7d80" d="M 1744.5,424.5 C 1745.71,424.932 1746.71,425.599 1747.5,426.5C 1745.82,426.715 1744.82,426.048 1744.5,424.5 Z"/></g>
<g><path style="opacity:0.941" fill="#bf7f83" d="M 1752.5,428.5 C 1753.71,428.932 1754.71,429.599 1755.5,430.5C 1753.82,430.715 1752.82,430.048 1752.5,428.5 Z"/></g>
<g><path style="opacity:0.004" fill="#fffe57" d="M 301.5,432.5 C 303.404,432.738 304.738,433.738 305.5,435.5C 303.596,435.262 302.262,434.262 301.5,432.5 Z"/></g>
<g><path style="opacity:0.933" fill="#fffe6d" d="M 1126.5,425.5 C 1128.21,434.28 1129.21,443.28 1129.5,452.5C 1127.79,443.72 1126.79,434.72 1126.5,425.5 Z"/></g>
<g><path style="opacity:0.894" fill="#77fffe" d="M 875.5,429.5 C 875.362,436.363 874.696,443.03 873.5,449.5C 873.294,442.604 873.961,435.937 875.5,429.5 Z"/></g>
<g><path style="opacity:0.694" fill="#fffe69" d="M 311.5,440.5 C 312.833,441.167 313.833,442.167 314.5,443.5C 312.5,443.5 311.5,442.5 311.5,440.5 Z"/></g>
<g><path style="opacity:0.675" fill="#fffe66" d="M 320.5,448.5 C 322.167,449.5 323.5,450.833 324.5,452.5C 322.167,452.167 320.833,450.833 320.5,448.5 Z"/></g>
<g><path style="opacity:0.843" fill="#c17c62" d="M 1782.5,451.5 C 1784.59,452.585 1785.92,454.251 1786.5,456.5C 1784.41,455.415 1783.08,453.749 1782.5,451.5 Z"/></g>
<g><path style="opacity:0.851" fill="#c07f61" d="M 1788.5,458.5 C 1790.26,459.262 1791.26,460.596 1791.5,462.5C 1789.74,461.738 1788.74,460.404 1788.5,458.5 Z"/></g>
<g><path style="opacity:0.894" fill="#b37e73" d="M 1791.5,462.5 C 1792.91,462.973 1793.57,463.973 1793.5,465.5C 1792.09,465.027 1791.43,464.027 1791.5,462.5 Z"/></g>
<g><path style="opacity:0.918" fill="#fffe74" d="M 338.5,466.5 C 341.903,468.9 344.57,471.9 346.5,475.5C 343.097,473.1 340.43,470.1 338.5,466.5 Z"/></g>
<g><path style="opacity:0.792" fill="#ae7d71" d="M 1793.5,465.5 C 1795.26,466.262 1796.26,467.596 1796.5,469.5C 1794.74,468.738 1793.74,467.404 1793.5,465.5 Z"/></g>
<g><path style="opacity:0.443" fill="#c1784e" d="M 1796.5,469.5 C 1797.91,469.973 1798.57,470.973 1798.5,472.5C 1797.09,472.027 1796.43,471.027 1796.5,469.5 Z"/></g>
<g><path style="opacity:0.467" fill="#ba7c52" d="M 1799.5,474.5 C 1800.91,474.973 1801.57,475.973 1801.5,477.5C 1800.09,477.027 1799.43,476.027 1799.5,474.5 Z"/></g>
<g><path style="opacity:0.682" fill="#fffe6f" d="M 348.5,477.5 C 350.914,478.911 352.581,480.911 353.5,483.5C 351.086,482.089 349.419,480.089 348.5,477.5 Z"/></g>
<g><path style="opacity:0.98" fill="#fffe8b" d="M 353.5,483.5 C 355.587,484.585 356.92,486.251 357.5,488.5C 355.413,487.415 354.08,485.749 353.5,483.5 Z"/></g>
<g><path style="opacity:0.455" fill="#58fffe" d="M 873.5,449.5 C 872.417,503.161 872.251,556.827 873,610.5C 873.277,638.275 876.777,665.608 883.5,692.5C 879.812,682.924 877.312,672.924 876,662.5C 873.825,647.24 872.492,631.907 872,616.5C 871.333,566.5 871.333,516.5 872,466.5C 872.173,460.652 872.673,454.985 873.5,449.5 Z"/></g>
<g><path style="opacity:0.647" fill="#fffe82" d="M 357.5,488.5 C 359.587,489.585 360.92,491.251 361.5,493.5C 359.413,492.415 358.08,490.749 357.5,488.5 Z"/></g>
<g><path style="opacity:0.455" fill="#fffe70" d="M 361.5,493.5 C 363.587,494.585 364.92,496.251 365.5,498.5C 363.413,497.415 362.08,495.749 361.5,493.5 Z"/></g>
<g><path style="opacity:1" fill="#fffe8e" d="M 1129.5,457.5 C 1132.02,486.169 1132.02,514.836 1129.5,543.5C 1129.5,514.833 1129.5,486.167 1129.5,457.5 Z"/></g>
<g><path style="opacity:0.965" fill="#b47f61" d="M 1812.5,501.5 C 1814.61,505.502 1815.94,509.835 1816.5,514.5C 1814.39,510.498 1813.06,506.165 1812.5,501.5 Z"/></g>
<g><path style="opacity:0.608" fill="#fffe6d" d="M 370.5,505.5 C 371.906,505.973 372.573,506.973 372.5,508.5C 371.094,508.027 370.427,507.027 370.5,505.5 Z"/></g>
<g><path style="opacity:0.643" fill="#fffe72" d="M 372.5,508.5 C 373.906,508.973 374.573,509.973 374.5,511.5C 373.094,511.027 372.427,510.027 372.5,508.5 Z"/></g>
<g><path style="opacity:0.6" fill="#fffe6e" d="M 374.5,511.5 C 375.906,511.973 376.573,512.973 376.5,514.5C 375.094,514.027 374.427,513.027 374.5,511.5 Z"/></g>
<g><path style="opacity:0.929" fill="#78fffe" d="M 265.5,515.5 C 266.239,515.369 266.906,515.536 267.5,516C 275.76,523.755 283.426,531.922 290.5,540.5C 281.833,532.5 273.5,524.167 265.5,515.5 Z"/></g>
<g><path style="opacity:0.529" fill="#fffe63" d="M 376.5,514.5 C 377.906,514.973 378.573,515.973 378.5,517.5C 377.094,517.027 376.427,516.027 376.5,514.5 Z"/></g>
<g><path style="opacity:0.392" fill="#fffe4f" d="M 378.5,517.5 C 379.906,517.973 380.573,518.973 380.5,520.5C 379.094,520.027 378.427,519.027 378.5,517.5 Z"/></g>
<g><path style="opacity:0.388" fill="#fffe50" d="M 381.5,522.5 C 382.906,522.973 383.573,523.973 383.5,525.5C 382.094,525.027 381.427,524.027 381.5,522.5 Z"/></g>
<g><path style="opacity:0.337" fill="#fffe4b" d="M 386.5,531.5 C 387.906,531.973 388.573,532.973 388.5,534.5C 387.094,534.027 386.427,533.027 386.5,531.5 Z"/></g>
<g><path style="opacity:1" fill="#fffecb" d="M 955.5,543.5 C 954.502,573.329 954.169,603.329 954.5,633.5C 953.17,603.331 953.17,572.997 954.5,542.5C 955.107,542.624 955.44,542.957 955.5,543.5 Z"/></g>
<g><path style="opacity:1" fill="#fffe95" d="M 392.5,543.5 C 394.065,545.509 395.065,547.843 395.5,550.5C 393.166,548.824 392.166,546.491 392.5,543.5 Z"/></g>
<g><path style="opacity:1" fill="#fffe84" d="M 397.5,556.5 C 399.61,560.502 400.943,564.835 401.5,569.5C 399.39,565.498 398.057,561.165 397.5,556.5 Z"/></g>
<g><path style="opacity:0.847" fill="#fffe72" d="M 402.5,573.5 C 404.375,578.206 405.375,583.206 405.5,588.5C 403.882,583.744 402.882,578.744 402.5,573.5 Z"/></g>
<g><path style="opacity:0.616" fill="#6cfffe" d="M 318.5,581.5 C 320.462,584.865 321.962,588.532 323,592.5C 327.193,609.256 328.526,626.256 327,643.5C 326.641,648.818 325.474,653.818 323.5,658.5C 328.713,632.369 327.047,606.702 318.5,581.5 Z"/></g>
<g><path style="opacity:0.643" fill="#fffe71" d="M 169.5,568.5 C 171.446,581.661 173.112,594.995 174.5,608.5C 171.678,595.451 170.011,582.117 169.5,568.5 Z"/></g>
<g><path style="opacity:0.878" fill="#b17f61" d="M 1824.5,567.5 C 1825.84,583.858 1825.51,600.192 1823.5,616.5C 1824,600.171 1824.33,583.838 1824.5,567.5 Z"/></g>
<g><path style="opacity:0.871" fill="#fffe71" d="M 174.5,608.5 C 176.452,615.652 178.119,622.985 179.5,630.5C 176.6,623.559 174.934,616.225 174.5,608.5 Z"/></g>
<g><path style="opacity:0.659" fill="#fffe66" d="M 405.5,588.5 C 406.956,593.934 407.79,599.6 408,605.5C 408.826,617.008 408.659,628.341 407.5,639.5C 407.802,622.454 407.135,605.454 405.5,588.5 Z"/></g>
<g><path style="opacity:0.392" fill="#c9803d" d="M 1591.5,585.5 C 1592.27,598.013 1592.93,610.68 1593.5,623.5C 1593.17,623.5 1592.83,623.5 1592.5,623.5C 1591.58,610.863 1591.25,598.197 1591.5,585.5 Z"/></g>
<g><path style="opacity:0.553" fill="#b27e59" d="M 1592.5,623.5 C 1592.83,623.5 1593.17,623.5 1593.5,623.5C 1593.83,626.833 1594.17,630.167 1594.5,633.5C 1592.99,630.456 1592.32,627.122 1592.5,623.5 Z"/></g>
<g><path style="opacity:0.957" fill="#fffe6a" d="M 179.5,630.5 C 181.072,633.215 182.072,636.215 182.5,639.5C 180.528,636.916 179.528,633.916 179.5,630.5 Z"/></g>
<g><path style="opacity:0.714" fill="#bc7d5c" d="M 1822.5,629.5 C 1821.91,635.037 1820.91,640.37 1819.5,645.5C 1819.67,640.804 1820.17,636.137 1821,631.5C 1821.28,630.584 1821.78,629.918 1822.5,629.5 Z"/></g>
<g><path style="opacity:0.337" fill="#78fffe" d="M 94.5,588.5 C 93.8885,590.913 93.5552,593.413 93.5,596C 95.0518,616.477 98.3851,636.644 103.5,656.5C 98.7595,642.644 95.5929,628.311 94,613.5C 93.2485,605.978 92.4152,598.478 91.5,591C 91.7483,589.251 92.7483,588.418 94.5,588.5 Z"/></g>
<g><path style="opacity:0.941" fill="#fffe6f" d="M 182.5,639.5 C 183.871,641.936 184.871,644.603 185.5,647.5C 183.345,645.383 182.345,642.716 182.5,639.5 Z"/></g>
<g><path style="opacity:0.741" fill="#b77f61" d="M 1819.5,647.5 C 1817.92,656.154 1815.59,664.487 1812.5,672.5C 1814.08,663.841 1816.41,655.508 1819.5,647.5 Z"/></g>
<g><path style="opacity:0.984" fill="#aa7e6c" d="M 1598.5,653.5 C 1599.54,654.93 1600.2,656.597 1600.5,658.5C 1598.79,657.365 1598.12,655.698 1598.5,653.5 Z"/></g>
<g><path style="opacity:0.29" fill="#fffe63" d="M 407.5,642.5 C 406.566,657.194 403.232,671.194 397.5,684.5C 401.742,670.6 405.076,656.6 407.5,642.5 Z"/></g>
<g><path style="opacity:0.396" fill="#fffe50" d="M 193.5,664.5 C 194.906,664.973 195.573,665.973 195.5,667.5C 194.094,667.027 193.427,666.027 193.5,664.5 Z"/></g>
<g><path style="opacity:0.933" fill="#fffe55" d="M 955.5,543.5 C 955.333,578.502 955.5,613.502 956,648.5C 956.439,659.013 957.939,669.346 960.5,679.5C 958.469,676.578 957.302,673.245 957,669.5C 955.393,657.552 954.56,645.552 954.5,633.5C 954.169,603.329 954.502,573.329 955.5,543.5 Z"/></g>
<g><path style="opacity:0.725" fill="#fffe71" d="M 196.5,669.5 C 198.262,670.262 199.262,671.596 199.5,673.5C 197.738,672.738 196.738,671.404 196.5,669.5 Z"/></g>
<g><path style="opacity:0.612" fill="#fffe5e" d="M 1129.5,608.5 C 1131.38,632.55 1129.88,656.55 1125,680.5C 1124.1,685.476 1122.6,690.142 1120.5,694.5C 1127.57,666.294 1130.57,637.627 1129.5,608.5 Z"/></g>
<g><path style="opacity:0.427" fill="#bc7a4f" d="M 1606.5,673.5 C 1607.91,673.973 1608.57,674.973 1608.5,676.5C 1607.09,676.027 1606.43,675.027 1606.5,673.5 Z"/></g>
<g><path style="opacity:0.757" fill="#ab7f6c" d="M 1811.5,675.5 C 1811.41,677.786 1810.74,679.786 1809.5,681.5C 1809.26,679.102 1809.93,677.102 1811.5,675.5 Z"/></g>
<g><path style="opacity:0.322" fill="#66fffe" d="M 1049.5,608.5 C 1049.67,624.837 1049.5,641.17 1049,657.5C 1048.18,664.926 1046.85,672.259 1045,679.5C 1044.42,682.572 1043.25,685.239 1041.5,687.5C 1044.88,676.761 1047.05,665.761 1048,654.5C 1048.17,638.995 1048.67,623.661 1049.5,608.5 Z"/></g>
<g><path style="opacity:0.922" fill="#b5806c" d="M 1609.5,678.5 C 1611.26,679.262 1612.26,680.596 1612.5,682.5C 1610.74,681.738 1609.74,680.404 1609.5,678.5 Z"/></g>
<g><path style="opacity:0.647" fill="#ab7e67" d="M 1808.5,683.5 C 1808.6,685.553 1807.93,687.22 1806.5,688.5C 1806.4,686.447 1807.07,684.78 1808.5,683.5 Z"/></g>
<g><path style="opacity:0.608" fill="#fffe6b" d="M 397.5,684.5 C 397.598,686.553 396.931,688.22 395.5,689.5C 395.402,687.447 396.069,685.78 397.5,684.5 Z"/></g>
<g><path style="opacity:0.42" fill="#fffe56" d="M 963.5,686.5 C 964.906,686.973 965.573,687.973 965.5,689.5C 964.094,689.027 963.427,688.027 963.5,686.5 Z"/></g>
<g><path style="opacity:0.455" fill="#fffe58" d="M 966.5,691.5 C 967.906,691.973 968.573,692.973 968.5,694.5C 967.094,694.027 966.427,693.027 966.5,691.5 Z"/></g>
<g><path style="opacity:0.922" fill="#bf7b7e" d="M 1626.5,693.5 C 1627.71,693.932 1628.71,694.599 1629.5,695.5C 1627.82,695.715 1626.82,695.048 1626.5,693.5 Z"/></g>
<g><path style="opacity:0.875" fill="#fffe68" d="M 755.5,694.5 C 757.5,695.833 759.167,697.5 760.5,699.5C 757.833,698.833 756.167,697.167 755.5,694.5 Z"/></g>
<g><path style="opacity:0.482" fill="#fffe5c" d="M 395.5,689.5 C 394.958,692.912 393.625,695.912 391.5,698.5C 392.042,695.088 393.375,692.088 395.5,689.5 Z"/></g>
<g><path style="opacity:0.482" fill="#fffe5b" d="M 968.5,694.5 C 969.906,694.973 970.573,695.973 970.5,697.5C 969.094,697.027 968.427,696.027 968.5,694.5 Z"/></g>
<g><path style="opacity:0.306" fill="#fffe4f" d="M 391.5,698.5 C 391.573,700.027 390.906,701.027 389.5,701.5C 389.427,699.973 390.094,698.973 391.5,698.5 Z"/></g>
<g><path style="opacity:0.525" fill="#fffe66" d="M 1119.5,697.5 C 1119.27,700.542 1118.27,703.208 1116.5,705.5C 1116.73,702.458 1117.73,699.792 1119.5,697.5 Z"/></g>
<g><path style="opacity:0.004" fill="#fffe43" d="M 387.5,705.5 C 387.573,707.027 386.906,708.027 385.5,708.5C 385.427,706.973 386.094,705.973 387.5,705.5 Z"/></g>
<g><path style="opacity:0.027" fill="#fffe4f" d="M 385.5,708.5 C 385.573,710.027 384.906,711.027 383.5,711.5C 383.427,709.973 384.094,708.973 385.5,708.5 Z"/></g>
<g><path style="opacity:0.396" fill="#fffe58" d="M 1115.5,707.5 C 1114.87,711.42 1113.21,714.753 1110.5,717.5C 1111.66,713.849 1113.33,710.515 1115.5,707.5 Z"/></g>
<g><path style="opacity:0.004" fill="#fffe47" d="M 383.5,711.5 C 383.573,713.027 382.906,714.027 381.5,714.5C 381.427,712.973 382.094,711.973 383.5,711.5 Z"/></g>
<g><path style="opacity:0.02" fill="#fffe4f" d="M 380.5,715.5 C 380.573,717.027 379.906,718.027 378.5,718.5C 378.427,716.973 379.094,715.973 380.5,715.5 Z"/></g>
<g><path style="opacity:0.02" fill="#fffe50" d="M 376.5,720.5 C 376.573,722.027 375.906,723.027 374.5,723.5C 374.427,721.973 375.094,720.973 376.5,720.5 Z"/></g>
<g><path style="opacity:0.004" fill="#fffe43" d="M 1106.5,724.5 C 1106.57,726.027 1105.91,727.027 1104.5,727.5C 1104.43,725.973 1105.09,724.973 1106.5,724.5 Z"/></g>
<g><path style="opacity:0.027" fill="#fffe50" d="M 1103.5,728.5 C 1103.57,730.027 1102.91,731.027 1101.5,731.5C 1101.43,729.973 1102.09,728.973 1103.5,728.5 Z"/></g>
<g><path style="opacity:0.016" fill="#fffe4d" d="M 1099.5,733.5 C 1099.57,735.027 1098.91,736.027 1097.5,736.5C 1097.43,734.973 1098.09,733.973 1099.5,733.5 Z"/></g>
<g><path style="opacity:0.004" fill="#fffe47" d="M 361.5,736.5 C 361.027,737.906 360.027,738.573 358.5,738.5C 358.973,737.094 359.973,736.427 361.5,736.5 Z"/></g>
<g><path style="opacity:0.686" fill="#9d7cac" d="M 1720.5,766.5 C 1716.38,768.283 1712.05,769.616 1707.5,770.5C 1711.29,768.124 1715.62,766.791 1720.5,766.5 Z"/></g>
<g><path style="opacity:1" fill="#76e885" d="M 209.5,900.5 C 208.778,900.918 208.278,901.584 208,902.5C 207.186,907.02 207.353,911.354 208.5,915.5C 209.595,920.947 211.762,925.947 215,930.5C 233.333,947.5 251.667,964.5 270,981.5C 278.399,990.965 283.565,1001.96 285.5,1014.5C 285.693,1024.19 285.36,1033.86 284.5,1043.5C 279.328,1061.12 267.661,1071.96 249.5,1076C 213.826,1081.97 191.66,1067.47 183,1032.5C 182.202,1027.14 181.368,1021.81 180.5,1016.5C 189.245,1013.53 198.078,1010.86 207,1008.5C 208.001,1020.84 211.334,1032.5 217,1043.5C 225.726,1053.31 236.226,1055.81 248.5,1051C 255.972,1045.89 259.639,1038.72 259.5,1029.5C 258.996,1019.82 255.83,1011.15 250,1003.5C 231.524,985.934 212.857,968.601 194,951.5C 181.044,933.091 178.044,913.091 185,891.5C 191.501,876.315 203.001,867.482 219.5,865C 260.59,859.765 281.59,877.765 282.5,919C 274.51,921.275 266.51,923.442 258.5,925.5C 257.963,915.314 255.463,905.647 251,896.5C 243.268,887.608 233.768,885.108 222.5,889C 216.463,891.002 212.13,894.835 209.5,900.5 Z"/></g>
<g><path style="opacity:1" fill="#7ae883" d="M 416.5,865.5 C 426.083,865.182 435.583,865.515 445,866.5C 445.5,935.833 445.667,1005.17 445.5,1074.5C 435.833,1074.5 426.167,1074.5 416.5,1074.5C 416.5,1004.83 416.5,935.167 416.5,865.5 Z"/></g>
<g><path style="opacity:0.999" fill="#76e885" d="M 1164.5,907.5 C 1165.62,945.488 1165.78,983.488 1165,1021.5C 1164.42,1025.83 1163.92,1030.17 1163.5,1034.5C 1159.04,1057.79 1145.04,1070.96 1121.5,1074C 1100.84,1074.5 1080.17,1074.67 1059.5,1074.5C 1059.5,1004.83 1059.5,935.167 1059.5,865.5C 1080.19,865.177 1100.86,865.677 1121.5,867C 1146.08,869.746 1160.41,883.246 1164.5,907.5 Z M 1089.5,888.5 C 1099.22,888.141 1108.89,888.641 1118.5,890C 1125.33,891.33 1130.16,895.163 1133,901.5C 1134.74,905.661 1135.74,909.995 1136,914.5C 1136.67,951.167 1136.67,987.833 1136,1024.5C 1135.89,1042.28 1127.05,1051.78 1109.5,1053C 1102.84,1053.5 1096.17,1053.67 1089.5,1053.5C 1089.5,998.5 1089.5,943.5 1089.5,888.5 Z"/></g>
<g><path style="opacity:0.963" fill="#7ae886" d="M 1192.5,874.5 C 1202.17,874.5 1211.83,874.5 1221.5,874.5C 1221.5,884.5 1221.5,894.5 1221.5,904.5C 1211.83,904.5 1202.17,904.5 1192.5,904.5C 1192.5,894.5 1192.5,884.5 1192.5,874.5 Z"/></g>
<g><path style="opacity:0.963" fill="#7ae886" d="M 1361.5,874.5 C 1371.17,874.5 1380.83,874.5 1390.5,874.5C 1390.5,884.5 1390.5,894.5 1390.5,904.5C 1380.83,904.5 1371.17,904.5 1361.5,904.5C 1361.5,894.5 1361.5,884.5 1361.5,874.5 Z"/></g>
<g><path style="opacity:0.963" fill="#7ae886" d="M 1605.5,874.5 C 1615.17,874.5 1624.83,874.5 1634.5,874.5C 1634.5,884.5 1634.5,894.5 1634.5,904.5C 1624.83,904.5 1615.17,904.5 1605.5,904.5C 1605.5,894.5 1605.5,884.5 1605.5,874.5 Z"/></g>
<g><path style="opacity:0.989" fill="#76e885" d="M 767.5,879.5 C 767.497,884.527 767.164,889.527 766.5,894.5C 764.308,904.46 757.974,909.46 747.5,909.5C 745.181,908.936 742.847,908.436 740.5,908C 731.495,904.164 722.495,900.33 713.5,896.5C 708.983,898.184 706.983,901.517 707.5,906.5C 701.833,906.5 696.167,906.5 690.5,906.5C 691.015,900.38 692.182,894.38 694,888.5C 700.074,879.249 708.574,876.082 719.5,879C 728.621,882.978 737.788,886.812 747,890.5C 748.711,890.561 750.044,889.894 751,888.5C 751.953,885.568 752.453,882.568 752.5,879.5C 757.5,879.5 762.5,879.5 767.5,879.5 Z"/></g>
<g><path style="opacity:0.831" fill="#b2e840" d="M 767.5,879.5 C 768.161,881.134 768.494,882.967 768.5,885C 768.579,888.451 767.913,891.618 766.5,894.5C 767.164,889.527 767.497,884.527 767.5,879.5 Z"/></g>
<g><path style="opacity:0.996" fill="#74e786" d="M 1453.5,944.5 C 1452.34,977.664 1452.17,1011 1453,1044.5C 1453.21,1046.06 1453.71,1047.39 1454.5,1048.5C 1455.98,1050.81 1457.98,1052.64 1460.5,1054C 1466.16,1054.5 1471.82,1054.67 1477.5,1054.5C 1477.5,1061.5 1477.5,1068.5 1477.5,1075.5C 1467.18,1077.41 1456.85,1077.57 1446.5,1076C 1434.13,1072.14 1427.29,1063.64 1426,1050.5C 1425.5,1015.17 1425.33,979.835 1425.5,944.5C 1420.17,944.5 1414.83,944.5 1409.5,944.5C 1409.5,938.167 1409.5,931.833 1409.5,925.5C 1414.83,925.5 1420.17,925.5 1425.5,925.5C 1425.5,911.167 1425.5,896.833 1425.5,882.5C 1434.83,882.5 1444.17,882.5 1453.5,882.5C 1453.5,896.833 1453.5,911.167 1453.5,925.5C 1461.5,925.5 1469.5,925.5 1477.5,925.5C 1477.5,931.833 1477.5,938.167 1477.5,944.5C 1469.5,944.5 1461.5,944.5 1453.5,944.5 Z"/></g>
<g><path style="opacity:0.404" fill="#bce833" d="M 209.5,900.5 C 208.671,905.453 208.337,910.453 208.5,915.5C 207.353,911.354 207.186,907.02 208,902.5C 208.278,901.584 208.778,900.918 209.5,900.5 Z"/></g>
<g><path style="opacity:1" fill="#74e885" d="M 384.5,945.5 C 385.256,949.767 386.589,953.767 388.5,957.5C 388.5,957.833 388.5,958.167 388.5,958.5C 389.422,984.152 389.756,1009.82 389.5,1035.5C 388.397,1062.77 374.23,1076.77 347,1077.5C 320.356,1076.86 306.023,1063.19 304,1036.5C 303.333,1012.5 303.333,988.5 304,964.5C 307.32,933.523 324.486,920.023 355.5,924C 369.598,925.365 379.265,932.532 384.5,945.5 Z M 332.5,1042.5 C 331.176,1013.84 331.176,985.169 332.5,956.5C 337.999,943.726 346.499,941.393 358,949.5C 360.768,955.167 362.102,961.167 362,967.5C 362.899,992.858 362.565,1018.19 361,1043.5C 358.653,1053.52 352.486,1057.35 342.5,1055C 336.8,1052.79 333.467,1048.63 332.5,1042.5 Z"/></g>
<g><path style="opacity:1" fill="#75e885" d="M 610.5,958.5 C 609.698,959.952 609.198,961.618 609,963.5C 608.333,987.833 608.333,1012.17 609,1036.5C 609.21,1038.06 609.71,1039.39 610.5,1040.5C 613.104,1054.77 621.104,1058.93 634.5,1053C 637.181,1050.81 638.681,1047.97 639,1044.5C 640.264,1035.55 640.764,1026.55 640.5,1017.5C 648.833,1017.5 657.167,1017.5 665.5,1017.5C 665.666,1026.51 665.5,1035.51 665,1044.5C 662.715,1064.62 651.548,1075.29 631.5,1076.5C 631.5,1080.5 631.5,1084.5 631.5,1088.5C 641.364,1089.68 649.864,1093.68 657,1100.5C 658.411,1102.65 659.245,1104.98 659.5,1107.5C 659.533,1111.87 659.2,1116.2 658.5,1120.5C 656.012,1126.49 651.678,1130.65 645.5,1133C 633.91,1136.41 622.41,1136.25 611,1132.5C 610.333,1127.5 610.333,1122.5 611,1117.5C 619.219,1120.31 627.386,1120.14 635.5,1117C 639.81,1111.49 639.143,1106.49 633.5,1102C 628.681,1099.67 623.681,1097.84 618.5,1096.5C 617.503,1089.87 617.17,1083.2 617.5,1076.5C 597.145,1074.88 585.645,1063.88 583,1043.5C 581.409,1017.2 581.076,990.862 582,964.5C 584.865,932.322 602.365,918.822 634.5,924C 652.623,926.123 662.79,936.29 665,954.5C 665.5,962.827 665.666,971.16 665.5,979.5C 657.167,979.5 648.833,979.5 640.5,979.5C 640.901,969.609 639.735,959.942 637,950.5C 629.119,942.558 621.119,942.558 613,950.5C 612.16,953.202 611.327,955.868 610.5,958.5 Z"/></g>
<g><path style="opacity:1" fill="#74e885" d="M 767.5,945.5 C 768.256,949.767 769.589,953.767 771.5,957.5C 771.5,957.833 771.5,958.167 771.5,958.5C 772.422,984.152 772.756,1009.82 772.5,1035.5C 771.397,1062.77 757.23,1076.77 730,1077.5C 703.356,1076.86 689.023,1063.19 687,1036.5C 686.333,1012.5 686.333,988.5 687,964.5C 690.32,933.523 707.486,920.023 738.5,924C 752.598,925.365 762.265,932.532 767.5,945.5 Z M 715.5,1042.5 C 714.176,1013.84 714.176,985.169 715.5,956.5C 720.999,943.726 729.499,941.393 741,949.5C 743.768,955.167 745.102,961.167 745,967.5C 745.899,992.858 745.565,1018.19 744,1043.5C 741.653,1053.52 735.486,1057.35 725.5,1055C 719.8,1052.79 716.467,1048.63 715.5,1042.5 Z"/></g>
<g><path style="opacity:0.993" fill="#75e885" d="M 822.5,1001.5 C 821.812,1006.59 821.479,1012.42 821.5,1019C 821.291,1027.72 821.958,1036.22 823.5,1044.5C 828.342,1055.77 836.342,1058.6 847.5,1053C 849.936,1050.29 851.436,1047.13 852,1043.5C 853.163,1036.55 853.663,1029.55 853.5,1022.5C 862.5,1022.5 871.5,1022.5 880.5,1022.5C 883.061,1065.77 863.061,1083.27 820.5,1075C 805.964,1069.14 797.797,1058.31 796,1042.5C 794.4,1016.87 794.067,991.198 795,965.5C 797.935,933.432 815.435,919.598 847.5,924C 862.592,925.289 872.426,933.123 877,947.5C 880.816,965.287 882.316,983.287 881.5,1001.5C 861.833,1001.5 842.167,1001.5 822.5,1001.5 Z M 822.5,985.5 C 822.034,974.006 823.034,962.672 825.5,951.5C 833.202,942.621 841.369,942.288 850,950.5C 852.991,961.962 854.158,973.628 853.5,985.5C 843.167,985.5 832.833,985.5 822.5,985.5 Z"/></g>
<g><path style="opacity:1" fill="#77e885" d="M 926.5,953.5 C 925.883,953.611 925.383,953.944 925,954.5C 924.233,958.594 924.566,962.594 926,966.5C 926.383,967.056 926.883,967.389 927.5,967.5C 942.465,981.965 957.299,996.631 972,1011.5C 982.495,1028.1 983.162,1045.1 974,1062.5C 961.117,1075.6 945.617,1080.1 927.5,1076C 907.325,1069.17 897.325,1055.17 897.5,1034C 905.141,1031.67 912.808,1029.51 920.5,1027.5C 920.944,1035.33 923.111,1042.67 927,1049.5C 933.598,1056.04 941.098,1057.21 949.5,1053C 955.053,1048.38 956.886,1042.55 955,1035.5C 953.359,1030.21 950.692,1025.55 947,1021.5C 936.778,1012.31 926.278,1003.48 915.5,995C 902.301,983.4 897.468,968.9 901,951.5C 906.148,932.539 918.648,923.206 938.5,923.5C 957.293,923.451 969.46,932.451 975,950.5C 975.881,954.504 976.714,958.504 977.5,962.5C 971.364,965.548 965.03,968.215 958.5,970.5C 956.897,963.191 954.397,956.191 951,949.5C 941.328,941.952 933.161,943.286 926.5,953.5 Z"/></g>
<g><path style="opacity:0.999" fill="#76e885" d="M 1329.5,972.5 C 1329.17,979.833 1328.83,987.167 1328.5,994.5C 1326.8,1014.44 1316.14,1025.94 1296.5,1029C 1289.2,1029.8 1282.03,1029.3 1275,1027.5C 1272.55,1030.58 1271.05,1034.08 1270.5,1038C 1271.33,1041.6 1273.66,1043.6 1277.5,1044C 1290.91,1045.13 1304.25,1046.79 1317.5,1049C 1333,1055.15 1340.67,1066.65 1340.5,1083.5C 1341.19,1103.15 1332.02,1115.15 1313,1119.5C 1295.11,1121.76 1277.28,1121.26 1259.5,1118C 1243.32,1114.49 1237.16,1104.65 1241,1088.5C 1244.14,1077.69 1250.64,1069.52 1260.5,1064C 1247.2,1058.41 1243.7,1048.91 1250,1035.5C 1253.95,1030.56 1258.12,1025.9 1262.5,1021.5C 1253.04,1012.58 1247.87,1001.58 1247,988.5C 1245.53,974.537 1246.87,960.871 1251,947.5C 1257.85,930.844 1270.35,922.844 1288.5,923.5C 1301.67,922.92 1312,927.92 1319.5,938.5C 1326.16,931.175 1334.16,925.842 1343.5,922.5C 1346.12,928.204 1348.46,934.037 1350.5,940C 1350.09,940.945 1349.43,941.612 1348.5,942C 1340.48,944.181 1332.81,947.181 1325.5,951C 1328.31,957.867 1329.64,965.034 1329.5,972.5 Z M 1271.5,987.5 C 1271.06,976.731 1271.73,966.064 1273.5,955.5C 1276.64,945.758 1283.31,941.925 1293.5,944C 1300.87,946.862 1304.7,952.362 1305,960.5C 1306.14,973.951 1305.47,987.284 1303,1000.5C 1298.25,1008.33 1291.42,1010.83 1282.5,1008C 1277.3,1005.45 1274.13,1001.28 1273,995.5C 1272.43,992.832 1271.93,990.166 1271.5,987.5 Z M 1274.5,1067.5 C 1283.83,1068.26 1293.17,1069.09 1302.5,1070C 1316.08,1071.68 1320.58,1078.85 1316,1091.5C 1313.9,1094.47 1311.07,1096.3 1307.5,1097C 1296.84,1098.88 1286.18,1098.88 1275.5,1097C 1266.55,1096.05 1263.05,1091.22 1265,1082.5C 1267.17,1076.83 1270.34,1071.83 1274.5,1067.5 Z"/></g>
<g><path style="opacity:0.999" fill="#75e886" d="M 1577.5,952.5 C 1577.96,993.182 1578.96,1033.85 1580.5,1074.5C 1572.49,1074.67 1564.49,1074.5 1556.5,1074C 1554.85,1067.96 1553.69,1061.8 1553,1055.5C 1543,1076.72 1527.5,1082.22 1506.5,1072C 1492.41,1057.89 1488.91,1041.39 1496,1022.5C 1498.71,1015.58 1502.54,1009.41 1507.5,1004C 1520.77,994.585 1535.1,987.085 1550.5,981.5C 1551.75,972.812 1551.59,964.146 1550,955.5C 1547.09,946.46 1540.92,943.293 1531.5,946C 1526.66,947.819 1523.83,951.319 1523,956.5C 1521.87,962.112 1521.37,967.779 1521.5,973.5C 1512.17,973.078 1502.84,972.745 1493.5,972.5C 1493.67,936.494 1511.67,920.327 1547.5,924C 1564.85,925.85 1574.85,935.35 1577.5,952.5 Z M 1521.5,1038.5 C 1521.35,1033.79 1521.69,1029.12 1522.5,1024.5C 1529.26,1013.26 1538.76,1004.92 1551,999.5C 1551.67,1013.17 1551.67,1026.83 1551,1040.5C 1547.06,1046.97 1541.4,1050.97 1534,1052.5C 1526.4,1050.99 1522.23,1046.32 1521.5,1038.5 Z"/></g>
<g><path style="opacity:1" fill="#77e885" d="M 1684.5,953.5 C 1683.88,953.611 1683.38,953.944 1683,954.5C 1682.23,958.594 1682.57,962.594 1684,966.5C 1684.38,967.056 1684.88,967.389 1685.5,967.5C 1700.47,981.965 1715.3,996.631 1730,1011.5C 1740.49,1028.1 1741.16,1045.1 1732,1062.5C 1719.12,1075.6 1703.62,1080.1 1685.5,1076C 1665.33,1069.17 1655.33,1055.17 1655.5,1034C 1663.14,1031.67 1670.81,1029.51 1678.5,1027.5C 1678.94,1035.33 1681.11,1042.67 1685,1049.5C 1691.6,1056.04 1699.1,1057.21 1707.5,1053C 1713.05,1048.38 1714.89,1042.55 1713,1035.5C 1711.36,1030.21 1708.69,1025.55 1705,1021.5C 1694.78,1012.31 1684.28,1003.48 1673.5,995C 1660.3,983.4 1655.47,968.9 1659,951.5C 1664.15,932.539 1676.65,923.206 1696.5,923.5C 1715.29,923.451 1727.46,932.451 1733,950.5C 1733.88,954.504 1734.71,958.504 1735.5,962.5C 1729.36,965.548 1723.03,968.215 1716.5,970.5C 1714.9,963.191 1712.4,956.191 1709,949.5C 1699.33,941.952 1691.16,943.286 1684.5,953.5 Z"/></g>
<g><path style="opacity:0.997" fill="#75e885" d="M 527.5,1047.5 C 528.496,1047.59 529.329,1047.25 530,1046.5C 530.5,1006.17 530.667,965.835 530.5,925.5C 539.5,925.5 548.5,925.5 557.5,925.5C 557.5,975.167 557.5,1024.83 557.5,1074.5C 548.167,1074.5 538.833,1074.5 529.5,1074.5C 529.666,1070.15 529.499,1065.82 529,1061.5C 515.411,1075.16 499.578,1079.32 481.5,1074C 474.112,1067.18 470.612,1058.68 471,1048.5C 470.5,1007.5 470.333,966.501 470.5,925.5C 480.167,925.5 489.833,925.5 499.5,925.5C 499.333,965.501 499.5,1005.5 500,1045.5C 503.077,1053.98 508.91,1056.48 517.5,1053C 521.048,1051.4 524.382,1049.56 527.5,1047.5 Z"/></g>
<g><path style="opacity:0.997" fill="#7ae885" d="M 1192.5,925.5 C 1202.17,925.5 1211.83,925.5 1221.5,925.5C 1221.5,975.167 1221.5,1024.83 1221.5,1074.5C 1211.83,1074.5 1202.17,1074.5 1192.5,1074.5C 1192.5,1024.83 1192.5,975.167 1192.5,925.5 Z"/></g>
<g><path style="opacity:0.997" fill="#7ae885" d="M 1361.5,925.5 C 1371.17,925.5 1380.83,925.5 1390.5,925.5C 1390.5,975.167 1390.5,1024.83 1390.5,1074.5C 1380.83,1074.5 1371.17,1074.5 1361.5,1074.5C 1361.5,1024.83 1361.5,975.167 1361.5,925.5 Z"/></g>
<g><path style="opacity:0.997" fill="#7ae885" d="M 1605.5,925.5 C 1615.17,925.5 1624.83,925.5 1634.5,925.5C 1634.5,975.167 1634.5,1024.83 1634.5,1074.5C 1624.83,1074.5 1615.17,1074.5 1605.5,1074.5C 1605.5,1024.83 1605.5,975.167 1605.5,925.5 Z"/></g>
<g><path style="opacity:0.596" fill="#35e8cd" d="M 530.5,925.5 C 530.667,965.835 530.5,1006.17 530,1046.5C 529.329,1047.25 528.496,1047.59 527.5,1047.5C 527.783,1046.71 528.283,1046.04 529,1045.5C 529.167,1005.33 529.667,965.331 530.5,925.5 Z"/></g>
<g><path style="opacity:0.988" fill="#8ae852" d="M 1164.5,907.5 C 1165.31,909.292 1165.81,911.292 1166,913.5C 1166.67,950.167 1166.67,986.833 1166,1023.5C 1165.76,1027.43 1164.93,1031.1 1163.5,1034.5C 1163.92,1030.17 1164.42,1025.83 1165,1021.5C 1165.78,983.488 1165.62,945.488 1164.5,907.5 Z"/></g>
<g><path style="opacity:0.816" fill="#90e84f" d="M 1453.5,944.5 C 1453.2,979.187 1453.53,1013.85 1454.5,1048.5C 1453.71,1047.39 1453.21,1046.06 1453,1044.5C 1452.17,1011 1452.34,977.664 1453.5,944.5 Z"/></g>
<g><path style="opacity:1" fill="#b5e949" d="M 384.5,945.5 C 386.806,949.085 388.139,953.085 388.5,957.5C 386.589,953.767 385.256,949.767 384.5,945.5 Z"/></g>
<g><path style="opacity:1" fill="#b5e949" d="M 767.5,945.5 C 769.806,949.085 771.139,953.085 771.5,957.5C 769.589,953.767 768.256,949.767 767.5,945.5 Z"/></g>
<g><path style="opacity:0.678" fill="#b4e941" d="M 926.5,953.5 C 925.133,958.27 925.466,962.937 927.5,967.5C 926.883,967.389 926.383,967.056 926,966.5C 924.566,962.594 924.233,958.594 925,954.5C 925.383,953.944 925.883,953.611 926.5,953.5 Z"/></g>
<g><path style="opacity:0.678" fill="#b4e941" d="M 1684.5,953.5 C 1683.13,958.27 1683.47,962.937 1685.5,967.5C 1684.88,967.389 1684.38,967.056 1684,966.5C 1682.57,962.594 1682.23,958.594 1683,954.5C 1683.38,953.944 1683.88,953.611 1684.5,953.5 Z"/></g>
<g><path style="opacity:0.878" fill="#97e84f" d="M 1577.5,952.5 C 1578.3,953.952 1578.8,955.618 1579,957.5C 1579.33,986.833 1579.67,1016.17 1580,1045.5C 1580.3,1054.56 1581.13,1063.56 1582.5,1072.5C 1582.25,1073.71 1581.59,1074.38 1580.5,1074.5C 1578.96,1033.85 1577.96,993.182 1577.5,952.5 Z"/></g>
<g><path style="opacity:0.659" fill="#abe845" d="M 332.5,956.5 C 331.176,985.169 331.176,1013.84 332.5,1042.5C 331.732,1041.74 331.232,1040.74 331,1039.5C 330.333,1013.17 330.333,986.833 331,960.5C 331.21,958.942 331.71,957.609 332.5,956.5 Z"/></g>
<g><path style="opacity:0.659" fill="#abe845" d="M 715.5,956.5 C 714.176,985.169 714.176,1013.84 715.5,1042.5C 714.732,1041.74 714.232,1040.74 714,1039.5C 713.333,1013.17 713.333,986.833 714,960.5C 714.21,958.942 714.71,957.609 715.5,956.5 Z"/></g>
<g><path style="opacity:0.275" fill="#dae824" d="M 1273.5,955.5 C 1271.73,966.064 1271.06,976.731 1271.5,987.5C 1270.34,979.01 1270.18,970.343 1271,961.5C 1271.04,959.026 1271.87,957.026 1273.5,955.5 Z"/></g>
<g><path style="opacity:0.659" fill="#b0e842" d="M 610.5,958.5 C 609.186,985.837 609.186,1013.17 610.5,1040.5C 609.71,1039.39 609.21,1038.06 609,1036.5C 608.333,1012.17 608.333,987.833 609,963.5C 609.198,961.618 609.698,959.952 610.5,958.5 Z"/></g>
<g><path style="opacity:0.659" fill="#ade844" d="M 825.5,951.5 C 823.034,962.672 822.034,974.006 822.5,985.5C 820.997,974.561 821.497,963.561 824,952.5C 824.383,951.944 824.883,951.611 825.5,951.5 Z"/></g>
<g><path style="opacity:0.753" fill="#aae843" d="M 388.5,958.5 C 389.309,960.292 389.809,962.292 390,964.5C 390.83,988.337 390.663,1012 389.5,1035.5C 389.756,1009.82 389.422,984.152 388.5,958.5 Z"/></g>
<g><path style="opacity:0.753" fill="#aae843" d="M 771.5,958.5 C 772.309,960.292 772.809,962.292 773,964.5C 773.83,988.337 773.663,1012 772.5,1035.5C 772.756,1009.82 772.422,984.152 771.5,958.5 Z"/></g>
<g><path style="opacity:0.839" fill="#cce834" d="M 1329.5,972.5 C 1330.61,979.871 1330.28,987.204 1328.5,994.5C 1328.83,987.167 1329.17,979.833 1329.5,972.5 Z"/></g>
<g><path style="opacity:0.659" fill="#afe842" d="M 822.5,1001.5 C 822.32,1015.85 822.653,1030.18 823.5,1044.5C 821.958,1036.22 821.291,1027.72 821.5,1019C 821.479,1012.42 821.812,1006.59 822.5,1001.5 Z"/></g>
<g><path style="opacity:1" fill="#abe946" d="M 285.5,1014.5 C 287.96,1024.23 287.626,1033.9 284.5,1043.5C 285.36,1033.86 285.693,1024.19 285.5,1014.5 Z"/></g>
<g><path style="opacity:0.294" fill="#cee82a" d="M 1522.5,1024.5 C 1521.69,1029.12 1521.35,1033.79 1521.5,1038.5C 1520.84,1036.7 1520.5,1034.7 1520.5,1032.5C 1520.29,1029.47 1520.95,1026.81 1522.5,1024.5 Z"/></g>
<g><path style="opacity:0.455" fill="#d6e825" d="M 659.5,1107.5 C 660.16,1108.96 660.493,1110.63 660.5,1112.5C 660.618,1115.49 659.952,1118.15 658.5,1120.5C 659.2,1116.2 659.533,1111.87 659.5,1107.5 Z"/></g>
</svg>
